<?xml version="1.0" encoding="UTF-8"?>
<!DOCTYPE svg PUBLIC "-//W3C//DTD SVG 1.1//EN" "http://www.w3.org/Graphics/SVG/1.1/DTD/svg11.dtd">
<svg version="1.1" xmlns="http://www.w3.org/2000/svg" xmlns:xlink="http://www.w3.org/1999/xlink" x="0px" y="0px" width="1100" height="1100" viewBox="0, 0, 1100, 1100">
  <g id="Layer 2">
    <path d="M-29.007,746.939 L-29.007,746.939" stroke="#000000" stroke-width="2" fill="#000000" fill-opacity="0"/>
  </g>
  <g id="Layer 1">
    <g>
      <path d="M32.549,288.012 C19.744,290.573 -0.485,288.012 27.734,288.012" stroke="#000000" stroke-width="2" fill="#000000" fill-opacity="0"/>
      <path d="M18.543,301.142 C33.989,299.426 19.277,300.705 20.731,300.705" stroke="#000000" stroke-width="2" fill="#000000" fill-opacity="0"/>
      <path d="M21.606,335.719 C16.097,335.719 17.442,336.112 22.044,337.033" stroke="#000000" stroke-width="2" fill="#000000" fill-opacity="0"/>
      <path d="M13.291,359.792 C17.231,360.355 21.136,360.229 25.108,360.229 C25.837,360.229 23.649,360.229 22.92,360.229 C21.607,360.229 20.293,360.229 18.98,360.229 C18.951,360.229 9.497,360.229 15.917,360.229" stroke="#000000" stroke-width="2" fill="#000000" fill-opacity="0"/>
      <path d="M16.354,312.085 C26.262,312.085 12.294,312.085 18.98,312.085" stroke="#000000" stroke-width="2" fill="#000000" fill-opacity="0"/>
    </g>
    <path d="M73.894,117.153 C76.986,117.374 80.073,117.153 83.178,117.153" stroke="#000000" stroke-width="2" fill="#000000" fill-opacity="0"/>
    <path d="M92.827,117.516 C94.83,117.516 96.832,117.516 98.835,117.516" stroke="#000000" stroke-width="2" fill="#000000" fill-opacity="0"/>
    <path d="M78.578,116.727 C88.872,78.982 85.592,74.055 97.197,116.605" stroke="#000000" stroke-width="2" fill="#000000" fill-opacity="0"/>
    <path d="M82.632,106.593 C86.306,106.855 89.891,106.593 93.556,106.593" stroke="#000000" stroke-width="2" fill="#000000" fill-opacity="0"/>
    <path d="M105.935,85.294 C112.842,85.787 126.479,81.841 130.695,89.299 C136.898,100.274 121.752,99.676 115.584,99.676" stroke="#000000" stroke-width="2" fill="#000000" fill-opacity="0"/>
    <path d="M116.495,99.493 C141.8,96.762 139.797,124.981 107.756,117.517" stroke="#000000" stroke-width="2" fill="#000000" fill-opacity="0"/>
    <path d="M114.856,85.476 C115.809,95.953 115.581,107.517 115.581,118.05" stroke="#000000" stroke-width="2" fill="#000000" fill-opacity="0"/>
    <path d="M162.337,84.398 C162.182,85.069 160.736,96.289 162.008,96.034 C163.347,95.766 160.014,89.681 160.005,89.662 C154.544,78.557 142.362,85.031 140.707,96.945 C137.237,121.944 160.551,124.435 161.826,107.14" stroke="#000000" stroke-width="2" fill="#000000" fill-opacity="0"/>
    <path d="M170.922,84.805 C177.365,85.521 196.479,80.007 197.417,95.894 C199.051,123.557 188.663,116.203 171.389,117.721" stroke="#000000" stroke-width="2" fill="#000000" fill-opacity="0"/>
    <path d="M178.976,85.038 C180.126,95.961 180.535,105.933 178.725,116.794" stroke="#000000" stroke-width="2" fill="#000000" fill-opacity="0"/>
    <path d="M205.415,85.489 C212.005,86.088 225.867,80.827 231.496,83.955 C233.093,84.841 230.929,92.865 232.391,95.205" stroke="#000000" stroke-width="2" fill="#000000" fill-opacity="0"/>
    <path d="M232.263,108.119 C232.263,108.929 232.263,109.739 232.263,110.548 C233.208,117.789 232.218,117.881 231.45,117.73 C221.71,117.287 222.015,117.325 219.733,117.325 C215.286,117.325 211.109,118.583 206.692,118.859" stroke="#000000" stroke-width="2" fill="#000000" fill-opacity="0"/>
    <path d="M213.282,85.326 C213.907,96.573 212.83,106.828 212.83,118.09" stroke="#000000" stroke-width="2" fill="#000000" fill-opacity="0"/>
    <path d="M214.619,100.191 C217.818,100.191 220.228,100.144 223.397,99.748" stroke="#000000" stroke-width="2" fill="#000000" fill-opacity="0"/>
    <path d="M223.442,94.056 C223.272,97.112 223.4,100.082 223.57,103.133" stroke="#000000" stroke-width="2" fill="#000000" fill-opacity="0"/>
    <path d="M242.491,84.21 C262.82,86.511 269.596,76.795 267.167,94.95" stroke="#000000" stroke-width="2" fill="#000000" fill-opacity="0"/>
    <path d="M250.163,84.977 C251.134,95.66 251.216,107.12 250.546,117.835" stroke="#000000" stroke-width="2" fill="#000000" fill-opacity="0"/>
    <path d="M242.364,118.218 C245.844,118.605 252.095,117.385 255.66,117.834" stroke="#000000" stroke-width="2" fill="#000000" fill-opacity="0"/>
    <path d="M251.057,100.191 C254.217,100.191 257.359,99.935 260.518,99.935" stroke="#000000" stroke-width="2" fill="#000000" fill-opacity="0"/>
    <path d="M260.902,93.671 C261.115,97.291 260.674,100.894 260.902,104.538" stroke="#000000" stroke-width="2" fill="#000000" fill-opacity="0"/>
    <path d="M296.7,82.548 C296.229,83.549 292.857,93.926 295.677,93.926 C296.93,93.926 291.6,83.653 288.262,82.931 C283.154,81.827 278.393,87.21 276.883,91.625 C269.273,113.87 295.574,128.525 295.574,103.948" stroke="#000000" stroke-width="2" fill="#000000" fill-opacity="0"/>
    <path d="M300.535,102.749 C296.768,103.126 292.941,103.294 289.157,103.517" stroke="#000000" stroke-width="2" fill="#000000" fill-opacity="0"/>
    <path d="M295.933,103.771 C296.223,108.984 295.479,114.14 295.806,119.369" stroke="#000000" stroke-width="2" fill="#000000" fill-opacity="0"/>
    <path d="M308.079,83.954 C311.671,84.553 315.553,83.927 319.203,83.699" stroke="#000000" stroke-width="2" fill="#000000" fill-opacity="0"/>
    <path d="M309.23,118.218 C312.443,117.912 315.61,117.817 318.818,118.218" stroke="#000000" stroke-width="2" fill="#000000" fill-opacity="0"/>
    <path d="M327.513,117.835 C330.309,117.66 333.016,117.451 335.823,117.451" stroke="#000000" stroke-width="2" fill="#000000" fill-opacity="0"/>
    <path d="M326.873,83.699 C330.123,83.87 333.341,83.623 336.589,83.443" stroke="#000000" stroke-width="2" fill="#000000" fill-opacity="0"/>
    <path d="M332.243,84.337 C332.899,94.839 332.66,106.367 332.66,116.891" stroke="#000000" stroke-width="2" fill="#000000" fill-opacity="0"/>
    <path d="M313.96,84.466 C314.512,94.961 313.389,107.165 314.548,117.596" stroke="#000000" stroke-width="2" fill="#000000" fill-opacity="0"/>
    <path d="M314.76,100.541 C320.071,100.82 326.866,100.43 332.166,100.118" stroke="#000000" stroke-width="2" fill="#000000" fill-opacity="0"/>
    <path d="M344.53,84.207 C352.168,83.757 359.839,84.296 367.478,83.787" stroke="#000000" stroke-width="2" fill="#000000" fill-opacity="0"/>
    <path d="M344.81,118.627 C351.733,117.858 358.716,118.501 365.658,118.067" stroke="#000000" stroke-width="2" fill="#000000" fill-opacity="0"/>
    <path d="M356.703,84.347 C356.703,95.179 357.467,106.513 357.467,117.315" stroke="#000000" stroke-width="2" fill="#000000" fill-opacity="0"/>
    <path d="M377.595,107.229 C374.711,107.359 374.583,111.631 374.753,113.45 C375.287,119.167 389.38,121.696 390.005,112.33 C390.75,101.157 390.022,93.858 390.022,84.296" stroke="#000000" stroke-width="2" fill="#000000" fill-opacity="0"/>
    <path d="M380.688,83.843 C386.616,83.679 392.578,83.562 398.508,83.562" stroke="#000000" stroke-width="2" fill="#000000" fill-opacity="0"/>
    <path d="M404.513,83.286 C408.185,83.032 411.855,83.1 415.535,83.1" stroke="#000000" stroke-width="2" fill="#000000" fill-opacity="0"/>
    <path d="M420.814,83.656 C424.835,84.53 428.592,84.746 432.67,84.119" stroke="#000000" stroke-width="2" fill="#000000" fill-opacity="0"/>
    <path d="M405.903,117.833 C408.807,117.581 411.697,117.614 414.609,117.741" stroke="#000000" stroke-width="2" fill="#000000" fill-opacity="0"/>
    <path d="M423.223,117.463 C426.717,117.767 430.213,117.453 433.689,117.927" stroke="#000000" stroke-width="2" fill="#000000" fill-opacity="0"/>
    <path d="M410.904,83.563 C410.904,94.755 411.599,105.883 411.09,117.093" stroke="#000000" stroke-width="2" fill="#000000" fill-opacity="0"/>
    <path d="M411.738,103.57 C417.435,98.347 422.949,90.503 428.21,84.992" stroke="#000000" stroke-width="2" fill="#000000" fill-opacity="0"/>
    <path d="M416.554,99.032 C420.28,104.745 424.835,111.349 428.688,117" stroke="#000000" stroke-width="2" fill="#000000" fill-opacity="0"/>
    <path d="M441.562,84.489 C448.52,85.046 455.766,84.396 462.772,84.396" stroke="#000000" stroke-width="2" fill="#000000" fill-opacity="0"/>
    <path d="M441.933,117.37 C451.844,116.907 464.626,117.74 468.145,116.536 C470.276,114.869 468.33,105.699 469.071,103.754" stroke="#000000" stroke-width="2" fill="#000000" fill-opacity="0"/>
    <path d="M452.677,85.601 C453.49,95.349 454.219,106.661 452.955,116.351" stroke="#000000" stroke-width="2" fill="#000000" fill-opacity="0"/>
    <path d="M476.852,117.834 C479.825,117.834 482.612,117.988 485.558,118.39" stroke="#000000" stroke-width="2" fill="#000000" fill-opacity="0"/>
    <path d="M498.247,117.647 C500.505,117.567 502.75,117.555 505.009,117.555" stroke="#000000" stroke-width="2" fill="#000000" fill-opacity="0"/>
    <path d="M476.667,84.674 C479.698,84.796 485.487,84.432 485.744,84.952 C494.248,112.895 490.282,112.368 498.618,85.045 C498.757,84.487 504.592,84.441 507.695,84.582" stroke="#000000" stroke-width="2" fill="#000000" fill-opacity="0"/>
    <path d="M481.39,85.23 C483.232,96.278 481.298,106.928 481.298,117.926" stroke="#000000" stroke-width="2" fill="#000000" fill-opacity="0"/>
    <path d="M503.527,84.952 C503.943,95.34 502.82,106.395 502.82,116.794" stroke="#000000" stroke-width="2" fill="#000000" fill-opacity="0"/>
    <path d="M75.411,190.559 C79.003,190.409 82.584,190.165 86.155,190.651" stroke="#000000" stroke-width="2" fill="#000000" fill-opacity="0"/>
    <path d="M91.527,157.77 C95.985,157.77 100.526,158.358 104.958,157.955" stroke="#000000" stroke-width="2" fill="#000000" fill-opacity="0"/>
    <path d="M74.021,157.585 C77.117,157.806 80.183,157.863 83.284,157.863" stroke="#000000" stroke-width="2" fill="#000000" fill-opacity="0"/>
    <path d="M98.381,158.141 C98.381,165.475 99.035,190.897 96.899,189.355 C95.232,188.151 82.719,167.351 79.733,158.019 C80.563,168.393 80.206,179.117 80.679,189.513" stroke="#000000" stroke-width="2" fill="#000000" fill-opacity="0"/>
    <path d="M125.907,156.274 C107.535,153.727 102.609,188.875 121.352,191.855 C140.095,194.836 144.279,158.82 125.907,156.274 z" stroke="#000000" stroke-width="2" fill="#000000" fill-opacity="0"/>
    <path d="M142.921,157.072 C182.293,150.806 174.624,180.452 153.769,175.215" stroke="#000000" stroke-width="2" fill="#000000" fill-opacity="0"/>
    <path d="M152.366,156.978 C151.891,167.884 152.927,178.883 152.927,189.804" stroke="#000000" stroke-width="2" fill="#000000" fill-opacity="0"/>
    <path d="M144.511,190.177 C149.802,190.177 155.224,189.043 160.409,190.457" stroke="#000000" stroke-width="2" fill="#000000" fill-opacity="0"/>
    <path d="M184.795,190.933 C203.132,196.862 207.423,159.482 195.017,156.396 C175.454,151.529 167.21,185.247 184.795,190.933 z" stroke="#000000" stroke-width="2" fill="#000000" fill-opacity="0"/>
    <path d="M193.028,191.61 C193.983,195.808 197.089,200.108 199.81,194.419" stroke="#000000" stroke-width="2" fill="#000000" fill-opacity="0"/>
    <path d="M208.043,157.995 C238.461,152.086 236.717,177.854 214.63,172.914" stroke="#000000" stroke-width="2" fill="#000000" fill-opacity="0"/>
    <path d="M214.34,157.706 C214.804,168.378 213.953,178.933 213.953,189.577" stroke="#000000" stroke-width="2" fill="#000000" fill-opacity="0"/>
    <path d="M207.268,190.545 C210.996,190.707 214.38,189.64 218.118,190.352" stroke="#000000" stroke-width="2" fill="#000000" fill-opacity="0"/>
    <path d="M224.125,173.592 C231.293,178.436 223.253,191.998 235.071,191.029" stroke="#000000" stroke-width="2" fill="#000000" fill-opacity="0"/>
    <path d="M262.721,156.501 C262.056,159.693 263.564,166.671 263.109,165.22 C253.906,143.714 228.156,172.273 257.974,173.357 C268.63,173.745 265.444,189.123 255.553,190.6 C240.634,192.828 242.669,169.579 244.219,190.116" stroke="#000000" stroke-width="2" fill="#000000" fill-opacity="0"/>
    <path d="M273.432,171.849 C273.648,169.365 271.885,160.328 272.948,158.674 C273.889,157.211 293.794,156.655 295.326,157.705 C298.207,159.681 297.069,170.081 297.069,173.302" stroke="#000000" stroke-width="2" fill="#000000" fill-opacity="0"/>
    <path d="M284.669,157.318 C284.232,167.827 286.163,179.002 284.647,189.614" stroke="#000000" stroke-width="2" fill="#000000" fill-opacity="0"/>
    <path d="M275.37,190.545 C280.699,190.767 286.163,189.867 291.548,189.867" stroke="#000000" stroke-width="2" fill="#000000" fill-opacity="0"/>
    <path d="M302.881,158.384 C306.366,157.626 309.886,158.19 313.441,158.19" stroke="#000000" stroke-width="2" fill="#000000" fill-opacity="0"/>
    <path d="M320.997,157.706 C324.741,158.57 328.751,158.949 332.331,157.415" stroke="#000000" stroke-width="2" fill="#000000" fill-opacity="0"/>
    <path d="M309.178,158.19 C308.749,180.304 305.594,190.255 318.09,190.448 C329.139,190.62 326.814,183.069 326.518,159.546" stroke="#000000" stroke-width="2" fill="#000000" fill-opacity="0"/>
    <path d="M337.065,157.184 C340.174,157.572 343.149,157.42 346.269,157.285" stroke="#000000" stroke-width="2" fill="#000000" fill-opacity="0"/>
    <path d="M352.844,157.285 C355.781,157.285 358.707,157.083 361.644,157.083" stroke="#000000" stroke-width="2" fill="#000000" fill-opacity="0"/>
    <path d="M341.212,157.587 C344.742,168.684 347.946,191.171 349.607,191.169 C351.269,191.167 355.726,168.47 358.812,157.891" stroke="#000000" stroke-width="2" fill="#000000" fill-opacity="0"/>
    <path d="M369.433,157.081 C372.757,167.528 374.299,189.736 375.502,189.955 C376.468,190.131 379.375,177.231 381.819,170.813" stroke="#000000" stroke-width="2" fill="#000000" fill-opacity="0"/>
    <path d="M380.457,166.085 C383.377,173.871 386.652,190.807 387.032,190.462 C387.784,189.78 390.168,167.661 392.359,156.706" stroke="#000000" stroke-width="2" fill="#000000" fill-opacity="0"/>
    <path d="M366.583,156.997 C368.741,156.997 370.899,156.997 373.057,156.997" stroke="#000000" stroke-width="2" fill="#000000" fill-opacity="0"/>
    <path d="M390.202,156.762 C393.404,156.629 391.82,156.661 394.956,156.661" stroke="#000000" stroke-width="2" fill="#000000" fill-opacity="0"/>
    <path d="M401.001,156.437 C404.664,156.437 408.388,156.148 411.985,156.867" stroke="#000000" stroke-width="2" fill="#000000" fill-opacity="0"/>
    <path d="M420.168,156.436 C423.324,157.01 426.443,156.867 429.644,156.867" stroke="#000000" stroke-width="2" fill="#000000" fill-opacity="0"/>
    <path d="M402.294,189.386 C405.352,189.386 408.335,189.216 411.338,189.817" stroke="#000000" stroke-width="2" fill="#000000" fill-opacity="0"/>
    <path d="M420.599,188.955 C423.786,188.955 426.726,188.975 429.859,189.601" stroke="#000000" stroke-width="2" fill="#000000" fill-opacity="0"/>
    <path d="M407.893,156.867 C412.37,168.059 419.379,177.781 425.121,188.309" stroke="#000000" stroke-width="2" fill="#000000" fill-opacity="0"/>
    <path d="M425.161,157.337 C419.989,168.717 413.892,178.669 407.463,189.385" stroke="#000000" stroke-width="2" fill="#000000" fill-opacity="0"/>
    <path d="M437.181,157.305 C440.25,156.691 443.318,156.874 446.441,156.874" stroke="#000000" stroke-width="2" fill="#000000" fill-opacity="0"/>
    <path d="M453.333,156.437 C457.088,157.376 460.887,157.083 464.747,157.083" stroke="#000000" stroke-width="2" fill="#000000" fill-opacity="0"/>
    <path d="M442.996,157.297 C445.541,162.388 449.993,173.217 451.166,173.217 C452.338,173.217 457.666,163.229 459.692,157.657" stroke="#000000" stroke-width="2" fill="#000000" fill-opacity="0"/>
    <path d="M451.272,173.43 C451.272,178.824 451.28,184.094 451.28,189.48" stroke="#000000" stroke-width="2" fill="#000000" fill-opacity="0"/>
    <path d="M441.919,189.385 C447.014,190.312 452.466,189.816 457.639,189.816" stroke="#000000" stroke-width="2" fill="#000000" fill-opacity="0"/>
    <path d="M472.069,168.066 C472.069,164.206 472.2,160.454 472.93,156.652 C473.136,155.582 494.479,155.856 493.766,156.921 C486.065,167.51 477.84,176.963 471.955,188.732 C471.504,189.605 485.149,189.126 491.404,189.126 C492.034,189.284 491.798,183.513 491.451,179.695" stroke="#000000" stroke-width="2" fill="#000000" fill-opacity="0"/>
    <path d="M77.307,245.857 C76.941,235.608 95.074,235.784 95.312,246.809 C95.37,249.509 91.248,269.444 102.213,260.293" stroke="#000000" stroke-width="2" fill="#000000" fill-opacity="0"/>
    <path d="M94.268,250.12 C84,253.14 75.76,250.404 75.845,257.57 C75.946,266.026 92.789,267.302 94.671,251.731" stroke="#000000" stroke-width="2" fill="#000000" fill-opacity="0"/>
    <path d="M104.336,229.677 C105.786,229.746 113.004,227.983 112.893,229.073 C111.987,238.033 113.136,261.481 112.893,263.906" stroke="#000000" stroke-width="2" fill="#000000" fill-opacity="0"/>
    <path d="M113.39,244.862 C139.465,226.74 130.629,282.202 113.413,258.241" stroke="#000000" stroke-width="2" fill="#000000" fill-opacity="0"/>
    <path d="M157.449,247.735 C157.961,236.863 139.345,237.703 138.475,248.145 C137.141,264.145 153.141,267.529 158.474,257.581" stroke="#000000" stroke-width="2" fill="#000000" fill-opacity="0"/>
    <path d="M178.063,229.372 C179.297,229.431 184.014,228.607 184.627,229.167 C188.843,233.017 178.587,266.589 190.165,263.115" stroke="#000000" stroke-width="2" fill="#000000" fill-opacity="0"/>
    <path d="M184.833,242.807 C168.73,229.269 158.224,264.777 177.653,263.32 C181.383,263.04 183.142,260.033 184.525,256.961" stroke="#000000" stroke-width="2" fill="#000000" fill-opacity="0"/>
    <path d="M198.851,251.311 C204.967,251.311 218.622,252.199 218.643,250.79 C218.86,236.35 198.538,234.435 197.6,251.415 C196.767,266.519 214.164,267.458 218.018,258.812" stroke="#000000" stroke-width="2" fill="#000000" fill-opacity="0"/>
    <path d="M223.789,263.873 C228.956,264.088 234.12,263.873 239.287,263.873" stroke="#000000" stroke-width="2" fill="#000000" fill-opacity="0"/>
    <path d="M232.619,263.691 C232.318,255.858 232.349,243.957 232.799,236.208 C233.269,228.128 247.311,226.101 246.856,236.569" stroke="#000000" stroke-width="2" fill="#000000" fill-opacity="0"/>
    <path d="M225.951,241.971 C230.482,240.838 234.427,242.604 239.377,241.7" stroke="#000000" stroke-width="2" fill="#000000" fill-opacity="0"/>
    <path d="M258.3,254.232 C261.715,253.276 268.828,255.54 271.456,253.601 C283.18,244.948 252.28,225.478 258.57,254.412" stroke="#000000" stroke-width="2" fill="#000000" fill-opacity="0"/>
    <path d="M258.57,254.045 C256.488,257.039 256.636,260.358 257.558,263.893" stroke="#000000" stroke-width="2" fill="#000000" fill-opacity="0"/>
    <path d="M272.176,243.329 C274.394,240.001 276.836,239.442 279.384,242.698" stroke="#000000" stroke-width="2" fill="#000000" fill-opacity="0"/>
    <path d="M255.326,265.849 C258.948,260.416 281.052,260.355 278.033,269.814 C275.439,277.94 253.673,277.881 254.966,267.111 z" stroke="#000000" stroke-width="2" fill="#000000" fill-opacity="0"/>
    <path d="M286.543,230.629 C287.456,230.76 292.062,230.369 292.547,230.72 C294.026,231.791 292.82,244.106 292.82,246.369 C292.82,252.234 293.002,257.068 293.002,262.927" stroke="#000000" stroke-width="2" fill="#000000" fill-opacity="0"/>
    <path d="M287.362,264.112 C290.345,263.516 293.693,263.616 296.732,263.748" stroke="#000000" stroke-width="2" fill="#000000" fill-opacity="0"/>
    <path d="M293.346,248.822 C308.539,232.628 311.835,244.733 309.56,264.02" stroke="#000000" stroke-width="2" fill="#000000" fill-opacity="0"/>
    <path d="M305.193,264.2 C308.207,264.78 310.884,264.568 313.927,264.291" stroke="#000000" stroke-width="2" fill="#000000" fill-opacity="0"/>
    <path d="M322.733,241.016 C338.678,237.918 328.747,246.483 331.115,262.337" stroke="#000000" stroke-width="2" fill="#000000" fill-opacity="0"/>
    <path d="M320.546,263.426 C327.06,263.891 334.119,263.177 340.682,262.879" stroke="#000000" stroke-width="2" fill="#000000" fill-opacity="0"/>
    <path d="M332.735,229.527 C325.529,226.94 329.164,237.018 331.964,234.223 C332.521,233.667 332.86,232.739 332.874,231.883 C332.886,231.059 332.738,229.629 332.035,229.618 C326.704,229.536 336.465,233.142 330.762,233.626 C330.645,233.636 331.262,229.411 329.755,231.445" stroke="#000000" stroke-width="2" fill="#000000" fill-opacity="0"/>
    <path d="M349.065,239.835 C366.286,239.744 363.552,236.646 363.188,260.518 C363.094,266.68 362.661,274.276 354.441,274.094 C343.713,273.855 350.735,260.831 352.345,265.893" stroke="#000000" stroke-width="2" fill="#000000" fill-opacity="0"/>
    <path d="M360.545,229.354 C355.478,230.275 359.41,235.94 361.729,232.907 C367.473,225.395 353.726,235.965 361.456,232.816 C362.64,232.333 359.51,231.928 360.713,230.934 C361.555,230.239 359.167,227.47 359.167,231.648" stroke="#000000" stroke-width="2" fill="#000000" fill-opacity="0"/>
    <path d="M373.392,229.812 C383.87,226.806 378.221,238.741 378.677,262.34" stroke="#000000" stroke-width="2" fill="#000000" fill-opacity="0"/>
    <path d="M375.397,262.519 C378.677,262.428 379.676,262.225 382.503,262.61" stroke="#000000" stroke-width="2" fill="#000000" fill-opacity="0"/>
    <path d="M378.865,257.996 C383.785,252.628 390.404,245.699 395.897,240.922" stroke="#000000" stroke-width="2" fill="#000000" fill-opacity="0"/>
    <path d="M389.974,241.016 C392.808,240.689 395.603,240.69 398.448,240.56" stroke="#000000" stroke-width="2" fill="#000000" fill-opacity="0"/>
    <path d="M388.243,249.306 C390.933,253.43 392.4,258.305 394.439,262.79" stroke="#000000" stroke-width="2" fill="#000000" fill-opacity="0"/>
    <path d="M391.797,262.882 C394.622,263 397.444,262.974 400.271,262.974" stroke="#000000" stroke-width="2" fill="#000000" fill-opacity="0"/>
    <path d="M406.557,230.086 C411.21,231.098 421.47,228.824 421.317,230.177 C420.105,240.892 419.805,250.665 419.315,261.445" stroke="#000000" stroke-width="2" fill="#000000" fill-opacity="0"/>
    <path d="M407.833,263.246 C415.547,262.389 422.721,262.286 430.429,263.337" stroke="#000000" stroke-width="2" fill="#000000" fill-opacity="0"/>
    <path d="M436.625,240.01 C442.421,239.758 438.994,257.935 438.994,262.788" stroke="#000000" stroke-width="2" fill="#000000" fill-opacity="0"/>
    <path d="M436.716,263.25 C439.72,262.89 438.228,263.009 441.18,262.886" stroke="#000000" stroke-width="2" fill="#000000" fill-opacity="0"/>
    <path d="M440.476,245.837 C452.153,229.782 451.297,255.715 451.297,262.448" stroke="#000000" stroke-width="2" fill="#000000" fill-opacity="0"/>
    <path d="M449.562,263.065 C452.606,263.416 451.149,263.48 453.936,262.974" stroke="#000000" stroke-width="2" fill="#000000" fill-opacity="0"/>
    <path d="M450.264,244.684 C464.495,232.928 461.63,254.031 462.012,262.446" stroke="#000000" stroke-width="2" fill="#000000" fill-opacity="0"/>
    <path d="M460.041,263.252 C463.262,263.482 461.743,263.511 464.597,263.252" stroke="#000000" stroke-width="2" fill="#000000" fill-opacity="0"/>
    <path d="M77.782,312.606 C87.051,311.342 83.856,326.842 83.515,334.002" stroke="#000000" stroke-width="2" fill="#000000" fill-opacity="0"/>
    <path d="M78.294,335.737 C81.394,334.962 84.108,334.562 87.303,334.714" stroke="#000000" stroke-width="2" fill="#000000" fill-opacity="0"/>
    <path d="M85.045,321.266 C104.291,302.634 103.068,322.842 101.532,334.41" stroke="#000000" stroke-width="2" fill="#000000" fill-opacity="0"/>
    <path d="M96.413,335.434 C99.31,334.999 102.088,334.922 105.013,334.922" stroke="#000000" stroke-width="2" fill="#000000" fill-opacity="0"/>
    <path d="M137.382,313.818 C121.616,307.263 113.374,330.294 125.541,335.81 C142.723,342.789 149.805,318.075 137.382,313.818 z" stroke="#000000" stroke-width="2" fill="#000000" fill-opacity="0"/>
    <path d="M152.012,311.677 C153.049,311.562 156.749,309.357 157.456,309.862 C159.662,311.439 157.597,327.263 157.335,329.823 C156.735,335.672 157.456,341.633 157.456,347.486" stroke="#000000" stroke-width="2" fill="#000000" fill-opacity="0"/>
    <path d="M153.222,348.334 C156.208,347.863 159.156,347.971 162.174,347.971" stroke="#000000" stroke-width="2" fill="#000000" fill-opacity="0"/>
    <path d="M158.907,313.975 C170.158,308.773 178.726,313.022 178.021,324.379 C176.933,341.92 157.698,335.387 157.939,325.83" stroke="#000000" stroke-width="2" fill="#000000" fill-opacity="0"/>
    <path d="M205.362,311.071 C204.148,323.206 206.088,335.336 206.088,347.485" stroke="#000000" stroke-width="2" fill="#000000" fill-opacity="0"/>
    <path d="M198.346,348.456 C202.877,346.945 206.678,347.851 211.29,347.851" stroke="#000000" stroke-width="2" fill="#000000" fill-opacity="0"/>
    <path d="M204.831,317.364 C199.508,306.355 186.686,310.951 185.28,320.51 C183.514,332.519 197.949,343.486 205.205,330.425" stroke="#000000" stroke-width="2" fill="#000000" fill-opacity="0"/>
    <path d="M216.969,311.319 C230.686,309.482 223.705,309.849 225.297,335.446" stroke="#000000" stroke-width="2" fill="#000000" fill-opacity="0"/>
    <path d="M216.97,336.553 C222.125,335.339 227.293,335.755 232.524,336.063" stroke="#000000" stroke-width="2" fill="#000000" fill-opacity="0"/>
    <path d="M225.752,318.569 C229.861,312.564 245.125,304.818 242.811,317.931" stroke="#000000" stroke-width="2" fill="#000000" fill-opacity="0"/>
    <path d="M273.788,317.424 C273.098,314.94 273.007,313.03 273.291,310.472" stroke="#000000" stroke-width="2" fill="#000000" fill-opacity="0"/>
    <path d="M254.176,327.604 C254.685,330.826 254.963,333.681 254.424,336.914" stroke="#000000" stroke-width="2" fill="#000000" fill-opacity="0"/>
    <path d="M254.281,328.377 C257.852,339.09 273.913,340.265 273.665,328.845 C273.481,320.388 253.555,326.886 253.555,316.68 C253.555,309.853 269.196,305.881 273.789,317.301" stroke="#000000" stroke-width="2" fill="#000000" fill-opacity="0"/>
    <path d="M281.485,312.459 C289.684,311.013 298.154,313.758 306.311,311.839" stroke="#000000" stroke-width="2" fill="#000000" fill-opacity="0"/>
    <path d="M291.912,299.794 C291.663,307.614 291.043,315.807 291.043,327.475 C291.043,340.871 306.932,340.261 304.573,328.22" stroke="#000000" stroke-width="2" fill="#000000" fill-opacity="0"/>
    <path d="M312.641,312.458 C314.996,312.829 317.094,312.846 319.469,312.706" stroke="#000000" stroke-width="2" fill="#000000" fill-opacity="0"/>
    <path d="M343.054,335.174 C327.041,341.628 346.53,307.989 329.027,312.209" stroke="#000000" stroke-width="2" fill="#000000" fill-opacity="0"/>
    <path d="M319.421,312.747 C314.58,330.623 323.937,348.6 336.474,324.891" stroke="#000000" stroke-width="2" fill="#000000" fill-opacity="0"/>
    <path d="M348.467,312.603 C352.208,312.603 355.581,312.65 359.281,312.033" stroke="#000000" stroke-width="2" fill="#000000" fill-opacity="0"/>
    <path d="M366.11,312.599 C370.214,312.599 374.302,312.257 378.404,312.257" stroke="#000000" stroke-width="2" fill="#000000" fill-opacity="0"/>
    <path d="M354.841,313.176 C355.162,315.101 362.177,336.308 362.695,336.283 C365.743,336.138 370.714,316.352 372.905,312.619" stroke="#000000" stroke-width="2" fill="#000000" fill-opacity="0"/>
    <path d="M388.714,312.718 C390.844,312.621 392.959,312.518 395.092,312.518" stroke="#000000" stroke-width="2" fill="#000000" fill-opacity="0"/>
    <path d="M392.7,313.115 C394.668,320.143 396.927,327.097 398.48,334.241" stroke="#000000" stroke-width="2" fill="#000000" fill-opacity="0"/>
    <path d="M398.585,334.297 C399.724,330.227 402.104,325.259 403.921,321.443" stroke="#000000" stroke-width="2" fill="#000000" fill-opacity="0"/>
    <path d="M402.166,316.909 C405.214,322.301 407.199,328.353 409.64,334.049" stroke="#000000" stroke-width="2" fill="#000000" fill-opacity="0"/>
    <path d="M410.537,312.32 C412.668,312.726 414.769,312.811 416.915,313.118" stroke="#000000" stroke-width="2" fill="#000000" fill-opacity="0"/>
    <path d="M414.025,313.017 C413.699,320.178 411.449,327.074 409.863,334.051" stroke="#000000" stroke-width="2" fill="#000000" fill-opacity="0"/>
    <path d="M425.146,313.12 C428.819,312.595 432.57,312.636 436.28,312.636" stroke="#000000" stroke-width="2" fill="#000000" fill-opacity="0"/>
    <path d="M441.605,313.121 C444.652,311.949 447.718,312.314 450.963,312.314" stroke="#000000" stroke-width="2" fill="#000000" fill-opacity="0"/>
    <path d="M424.985,334.098 C427.997,334.098 431.009,334.098 434.021,334.098" stroke="#000000" stroke-width="2" fill="#000000" fill-opacity="0"/>
    <path d="M442.25,334.749 C445.588,334.553 448.922,334.683 452.254,334.427" stroke="#000000" stroke-width="2" fill="#000000" fill-opacity="0"/>
    <path d="M433.375,313.122 C437.042,320.456 441.479,327.993 446.471,334.482" stroke="#000000" stroke-width="2" fill="#000000" fill-opacity="0"/>
    <path d="M446.768,312.805 C441.905,319.828 433.525,325.555 430.996,333.775" stroke="#000000" stroke-width="2" fill="#000000" fill-opacity="0"/>
    <path d="M459.515,313.284 C462.84,313.699 465.593,313.034 468.873,312.8" stroke="#000000" stroke-width="2" fill="#000000" fill-opacity="0"/>
    <path d="M475.811,314.253 C478.834,313.39 481.903,313.406 485.009,312.963" stroke="#000000" stroke-width="2" fill="#000000" fill-opacity="0"/>
    <path d="M465.322,313.768 C467.508,319.889 470.923,327.395 473.256,333.46" stroke="#000000" stroke-width="2" fill="#000000" fill-opacity="0"/>
    <path d="M480.491,313.926 C475.166,327.641 473.162,336.362 469.519,342.324 C467.744,345.228 462.419,348.617 460.967,339.258" stroke="#000000" stroke-width="2" fill="#000000" fill-opacity="0"/>
    <path d="M495.509,311.711 C495.727,314.755 495.673,317.794 495.673,320.845" stroke="#000000" stroke-width="2" fill="#000000" fill-opacity="0"/>
    <path d="M512.96,325.736 C512.96,328.621 513.096,331.075 513.096,333.964" stroke="#000000" stroke-width="2" fill="#000000" fill-opacity="0"/>
    <path d="M495.836,311.713 C500.878,313.652 507.093,312.277 512.472,312.691" stroke="#000000" stroke-width="2" fill="#000000" fill-opacity="0"/>
    <path d="M513.124,334.053 C506.048,334.053 499.176,333.154 492.258,334.75" stroke="#000000" stroke-width="2" fill="#000000" fill-opacity="0"/>
    <path d="M491.921,334.865 C499.815,331.482 507.116,319.556 512.249,312.883" stroke="#000000" stroke-width="2" fill="#000000" fill-opacity="0"/>
    <path d="M79.786,384.805 C84.513,385.142 93.848,382.441 96.733,387.546 C100.979,395.059 90.612,394.649 86.39,394.649" stroke="#000000" stroke-width="2" fill="#000000" fill-opacity="0"/>
    <path d="M87.013,394.525 C104.334,392.655 102.964,411.97 81.032,406.861" stroke="#000000" stroke-width="2" fill="#000000" fill-opacity="0"/>
    <path d="M85.892,384.93 C86.544,392.101 86.388,400.016 86.388,407.226" stroke="#000000" stroke-width="2" fill="#000000" fill-opacity="0"/>
    <g>
      <path d="M106.217,384.682 C110.734,385.184 124.132,381.318 124.79,392.455 C125.936,411.846 118.654,406.692 106.544,407.755" stroke="#000000" stroke-width="2" fill="#000000" fill-opacity="0"/>
      <path d="M111.863,384.845 C112.669,392.501 112.956,399.492 111.687,407.105" stroke="#000000" stroke-width="2" fill="#000000" fill-opacity="0"/>
    </g>
    <path d="M132.539,384.505 C146.369,386.071 150.979,379.46 149.327,391.812" stroke="#000000" stroke-width="2" fill="#000000" fill-opacity="0"/>
    <path d="M137.758,385.027 C138.419,392.296 138.475,400.093 138.019,407.383" stroke="#000000" stroke-width="2" fill="#000000" fill-opacity="0"/>
    <path d="M132.452,407.643 C134.82,407.907 139.072,407.077 141.498,407.383" stroke="#000000" stroke-width="2" fill="#000000" fill-opacity="0"/>
    <path d="M138.367,395.378 C140.516,395.378 142.654,395.204 144.803,395.204" stroke="#000000" stroke-width="2" fill="#000000" fill-opacity="0"/>
    <path d="M145.065,390.941 C145.21,393.405 144.91,395.855 145.065,398.335" stroke="#000000" stroke-width="2" fill="#000000" fill-opacity="0"/>
    <path d="M189.566,384.198 C189.249,384.872 186.98,391.854 188.878,391.854 C189.721,391.854 186.134,384.942 183.888,384.456 C180.451,383.713 177.248,387.335 176.232,390.306 C171.111,405.274 188.808,415.134 188.808,398.597" stroke="#000000" stroke-width="2" fill="#000000" fill-opacity="0"/>
    <path d="M192.146,397.791 C189.611,398.044 187.036,398.157 184.49,398.307" stroke="#000000" stroke-width="2" fill="#000000" fill-opacity="0"/>
    <path d="M189.049,398.478 C189.244,401.986 188.743,405.455 188.963,408.974" stroke="#000000" stroke-width="2" fill="#000000" fill-opacity="0"/>
    <path d="M208.022,384.282 C210.438,384.684 213.049,384.263 215.504,384.11" stroke="#000000" stroke-width="2" fill="#000000" fill-opacity="0"/>
    <path d="M208.796,407.328 C210.958,407.122 213.088,407.058 215.246,407.328" stroke="#000000" stroke-width="2" fill="#000000" fill-opacity="0"/>
    <path d="M221.093,407.07 C222.974,406.953 224.794,406.812 226.683,406.812" stroke="#000000" stroke-width="2" fill="#000000" fill-opacity="0"/>
    <path d="M220.662,384.111 C222.849,384.226 225.013,384.06 227.198,383.939" stroke="#000000" stroke-width="2" fill="#000000" fill-opacity="0"/>
    <path d="M224.275,384.54 C224.716,391.604 224.555,399.357 224.555,406.436" stroke="#000000" stroke-width="2" fill="#000000" fill-opacity="0"/>
    <path d="M211.977,384.626 C212.349,391.685 211.593,399.894 212.373,406.91" stroke="#000000" stroke-width="2" fill="#000000" fill-opacity="0"/>
    <path d="M212.515,395.438 C216.088,395.626 220.658,395.363 224.223,395.154" stroke="#000000" stroke-width="2" fill="#000000" fill-opacity="0"/>
    <path d="M245.05,384.338 C250.268,384.031 255.507,384.4 260.726,384.052" stroke="#000000" stroke-width="2" fill="#000000" fill-opacity="0"/>
    <path d="M245.241,407.85 C249.97,407.325 254.741,407.764 259.483,407.468" stroke="#000000" stroke-width="2" fill="#000000" fill-opacity="0"/>
    <path d="M253.365,384.434 C253.365,391.833 253.887,399.575 253.887,406.954" stroke="#000000" stroke-width="2" fill="#000000" fill-opacity="0"/>
    <path d="M276.798,400.213 C274.857,400.301 274.771,403.177 274.885,404.4 C275.244,408.248 284.729,409.95 285.149,403.647 C285.651,396.128 285.161,391.215 285.161,384.78" stroke="#000000" stroke-width="2" fill="#000000" fill-opacity="0"/>
    <path d="M278.878,384.476 C282.868,384.365 286.88,384.286 290.872,384.286" stroke="#000000" stroke-width="2" fill="#000000" fill-opacity="0"/>
    <path d="M306.439,384.49 C308.878,384.322 311.316,384.367 313.761,384.367" stroke="#000000" stroke-width="2" fill="#000000" fill-opacity="0"/>
    <path d="M317.268,384.736 C319.939,385.317 322.435,385.461 325.144,385.044" stroke="#000000" stroke-width="2" fill="#000000" fill-opacity="0"/>
    <path d="M307.362,407.442 C309.292,407.274 311.211,407.296 313.146,407.38" stroke="#000000" stroke-width="2" fill="#000000" fill-opacity="0"/>
    <path d="M318.868,407.196 C321.19,407.398 323.513,407.189 325.822,407.504" stroke="#000000" stroke-width="2" fill="#000000" fill-opacity="0"/>
    <path d="M310.685,384.676 C310.685,392.111 311.146,399.504 310.808,406.95" stroke="#000000" stroke-width="2" fill="#000000" fill-opacity="0"/>
    <path d="M311.238,397.966 C315.023,394.496 318.686,389.286 322.182,385.624" stroke="#000000" stroke-width="2" fill="#000000" fill-opacity="0"/>
    <path d="M314.438,394.951 C316.913,398.747 319.939,403.134 322.498,406.889" stroke="#000000" stroke-width="2" fill="#000000" fill-opacity="0"/>
    <path d="M342.774,384.453 C347.61,384.839 352.646,384.388 357.516,384.388" stroke="#000000" stroke-width="2" fill="#000000" fill-opacity="0"/>
    <path d="M343.032,407.306 C349.921,406.984 358.805,407.563 361.251,406.726 C362.732,405.568 361.38,399.194 361.895,397.842" stroke="#000000" stroke-width="2" fill="#000000" fill-opacity="0"/>
    <path d="M350.5,385.225 C351.064,392.001 351.571,399.864 350.693,406.598" stroke="#000000" stroke-width="2" fill="#000000" fill-opacity="0"/>
    <path d="M378.659,384.56 C404.96,380.374 399.837,400.178 385.906,396.679" stroke="#000000" stroke-width="2" fill="#000000" fill-opacity="0"/>
    <path d="M384.968,384.497 C384.651,391.783 385.343,399.129 385.343,406.425" stroke="#000000" stroke-width="2" fill="#000000" fill-opacity="0"/>
    <path d="M379.721,406.674 C383.255,406.674 386.878,405.917 390.341,406.862" stroke="#000000" stroke-width="2" fill="#000000" fill-opacity="0"/>
    <path d="M417.272,407.099 C429.388,411.016 432.223,386.319 424.027,384.28 C411.101,381.065 405.654,403.342 417.272,407.099 z" stroke="#000000" stroke-width="2" fill="#000000" fill-opacity="0"/>
    <path d="M422.713,407.546 C423.343,410.32 425.396,413.161 427.193,409.402" stroke="#000000" stroke-width="2" fill="#000000" fill-opacity="0"/>
    <path d="M446.548,394.402 C446.698,392.676 445.473,386.397 446.212,385.247 C446.865,384.231 460.696,383.845 461.761,384.574 C463.763,385.947 462.972,393.173 462.972,395.411" stroke="#000000" stroke-width="2" fill="#000000" fill-opacity="0"/>
    <path d="M454.356,384.305 C454.052,391.607 455.394,399.372 454.341,406.745" stroke="#000000" stroke-width="2" fill="#000000" fill-opacity="0"/>
    <path d="M447.895,407.393 C451.597,407.547 455.394,406.921 459.135,406.921" stroke="#000000" stroke-width="2" fill="#000000" fill-opacity="0"/>
    <path d="M479.128,384.393 C481.307,383.957 483.485,384.087 485.702,384.087" stroke="#000000" stroke-width="2" fill="#000000" fill-opacity="0"/>
    <path d="M490.595,383.777 C493.261,384.443 495.958,384.235 498.699,384.235" stroke="#000000" stroke-width="2" fill="#000000" fill-opacity="0"/>
    <path d="M483.256,384.387 C485.063,388.001 488.224,395.689 489.056,395.689 C489.889,395.689 493.671,388.598 495.11,384.642" stroke="#000000" stroke-width="2" fill="#000000" fill-opacity="0"/>
    <path d="M489.132,395.84 C489.132,399.67 489.138,403.412 489.138,407.236" stroke="#000000" stroke-width="2" fill="#000000" fill-opacity="0"/>
    <path d="M482.491,407.169 C486.109,407.826 489.979,407.475 493.653,407.475" stroke="#000000" stroke-width="2" fill="#000000" fill-opacity="0"/>
    <path d="M636.552,302.031 C635.984,308.848 636.367,315.794 636.367,322.635" stroke="#000000" stroke-width="2" fill="#000000" fill-opacity="0"/>
    <path d="M638.212,333.379 C627.553,337.865 643.744,324.642 634.266,335.099" stroke="#000000" stroke-width="2" fill="#000000" fill-opacity="0"/>
    <path d="M714.667,302.779 C719.076,302.779 716.867,312.963 716.867,316.775" stroke="#000000" stroke-width="2" fill="#000000" fill-opacity="0"/>
    <path d="M726.064,302.179 C729.486,305.944 727.463,312.009 727.463,316.975" stroke="#000000" stroke-width="2" fill="#000000" fill-opacity="0"/>
    <path d="M865.981,198.258 C868.715,184.589 875.978,168.067 878.177,157.87" stroke="#000000" stroke-width="2" fill="#000000" fill-opacity="0"/>
    <path d="M887.174,157.071 C882.812,171.03 878.444,184.606 874.978,198.857" stroke="#000000" stroke-width="2" fill="#000000" fill-opacity="0"/>
    <path d="M865.98,173.665 C874.204,174.84 882.872,173.865 891.172,173.865" stroke="#000000" stroke-width="2" fill="#000000" fill-opacity="0"/>
    <path d="M862.981,182.262 C869.812,182.832 877.087,182.063 883.975,182.063" stroke="#000000" stroke-width="2" fill="#000000" fill-opacity="0"/>
    <path d="M922.15,165.127 C919.782,158.613 905.825,159.066 904.899,166.784 C903.678,176.959 923.681,174.789 925.074,183.548 C926.607,193.182 908.006,193.106 904.704,185.4" stroke="#000000" stroke-width="2" fill="#000000" fill-opacity="0"/>
    <path d="M910.942,153.432 C911.556,167.563 912.319,182.28 910.552,196.414" stroke="#000000" stroke-width="2" fill="#000000" fill-opacity="0"/>
    <path d="M919.227,153.626 C919.854,168.664 919.002,183.849 918.35,198.85" stroke="#000000" stroke-width="2" fill="#000000" fill-opacity="0"/>
    <path d="M938.002,197.291 C942.432,181.467 957.244,168.134 963.928,152.943" stroke="#000000" stroke-width="2" fill="#000000" fill-opacity="0"/>
    <path d="M945.507,167.466 C945.604,179.357 935.829,178.468 935.273,169.708 C934.493,157.427 945.412,155.869 945.507,167.466 z" stroke="#000000" stroke-width="2" fill="#000000" fill-opacity="0"/>
    <path d="M964.416,182.379 C965.001,193.393 953.695,195.05 953.889,184.328 C954.12,171.657 963.879,172.269 964.416,182.379 z" stroke="#000000" stroke-width="2" fill="#000000" fill-opacity="0"/>
    <path d="M1003.068,172.195 C1000.638,178.271 984.474,200.491 978.141,185.804 C971.964,171.48 999.554,172.088 993.097,159.934 C989.716,153.569 980.275,158.852 981.779,165.054 C983.997,174.205 999.629,183.142 1004.55,191.194" stroke="#000000" stroke-width="2" fill="#000000" fill-opacity="0"/>
    <path d="M625.608,372.901 C627.899,364.143 626.691,383.869 626.551,386.241" stroke="#000000" stroke-width="2" fill="#000000" fill-opacity="0"/>
    <path d="M717.076,367.015 C699.813,379.482 703.715,402.034 715.574,416.857" stroke="#000000" stroke-width="2" fill="#000000" fill-opacity="0"/>
    <path d="M789.45,368.243 C806.069,379.669 802.336,405.656 787.402,416.857" stroke="#000000" stroke-width="2" fill="#000000" fill-opacity="0"/>
    <path d="M867.33,384.849 C874.72,384.849 882.01,384.023 889.356,384.023" stroke="#000000" stroke-width="2" fill="#000000" fill-opacity="0"/>
    <path d="M871.734,372.596 C872.147,379.196 880.456,387.305 884.262,392.695" stroke="#000000" stroke-width="2" fill="#000000" fill-opacity="0"/>
    <path d="M870.771,393.797 C875.593,387.367 879.904,380.586 884.675,374.111" stroke="#000000" stroke-width="2" fill="#000000" fill-opacity="0"/>
    <path d="M961.63,381.82 C962.415,387.711 961.905,397.484 961.905,403.434" stroke="#000000" stroke-width="2" fill="#000000" fill-opacity="0"/>
    <path d="M952.681,391.733 C960.451,392.25 964.864,392.241 972.663,392.241" stroke="#000000" stroke-width="2" fill="#000000" fill-opacity="0"/>
    <path d="M1044.307,404.201 C1045.457,399.831 1052.252,405.325 1043.955,413.621" stroke="#000000" stroke-width="2" fill="#000000" fill-opacity="0"/>
    <path d="M656.555,88.629 C655.703,84.939 672.21,82.804 674.067,84.893 C676.77,87.934 661.77,97.502 662.237,98.514 C662.704,99.525 670.409,95.712 674.378,99.292 C676.51,101.215 679.52,106.245 676.635,110.5 C672.705,116.297 664.556,120.094 658.656,123.497" stroke="#000000" stroke-width="2" fill="#000000" fill-opacity="0"/>
    <path d="M708.276,108.21 C704.959,108.095 690.514,110.695 688.376,108.891 C686.754,107.521 700.85,82.319 701.694,82.408 C702.537,82.497 702.223,116.576 702.223,122.132" stroke="#000000" stroke-width="2" fill="#000000" fill-opacity="0"/>
    <path d="M735.385,84.317 C716.727,85.239 718.877,80.555 719.261,90.46 C719.287,91.13 719.334,99.505 719.722,99.98 C722.102,102.898 736.46,88.77 736.92,106.737 C737.197,117.525 727.388,119.838 719.107,123.091" stroke="#000000" stroke-width="2" fill="#000000" fill-opacity="0"/>
    <path d="M764.691,83.649 C748.911,82.48 739.01,116.213 754.58,120.016 C773.251,124.576 770.224,88.256 747.654,103.995" stroke="#000000" stroke-width="2" fill="#000000" fill-opacity="0"/>
    <path d="M781.317,90.791 C779.217,79.944 786.122,84.405 801.436,84.405 C803.798,84.405 795.283,98.81 794.525,100.938 C792.205,107.458 791.989,113.704 791.726,120.533" stroke="#000000" stroke-width="2" fill="#000000" fill-opacity="0"/>
    <path d="M820.299,100.367 C799.745,103.821 817.662,127.778 829.161,115.664 C843.353,100.713 808.979,102.541 811.515,91.03 C815.006,75.19 848.199,93.582 822.601,100.987" stroke="#000000" stroke-width="2" fill="#000000" fill-opacity="0"/>
    <path d="M864.999,99.905 C835.729,118.765 840.707,72.913 861.589,85.209 C863.436,86.296 865.242,93.896 865.08,100.554 C864.82,111.22 858.336,122.584 845.918,123.046" stroke="#000000" stroke-width="2" fill="#000000" fill-opacity="0"/>
    <path d="M750.46,262.579 C752.829,257.841 756.723,267.903 748.798,271.39" stroke="#000000" stroke-width="2" fill="#000000" fill-opacity="0"/>
    <path d="M898.387,239.479 C866.718,252.612 870.957,252.778 895.228,262.919" stroke="#000000" stroke-width="2" fill="#000000" fill-opacity="0"/>
    <path d="M909.388,244.625 C917.013,245.504 924.476,245.263 932.08,245.871" stroke="#000000" stroke-width="2" fill="#000000" fill-opacity="0"/>
    <path d="M909.803,254.682 C916.689,255.395 923.826,255.264 930.749,255.264" stroke="#000000" stroke-width="2" fill="#000000" fill-opacity="0"/>
    <path d="M941.339,239.476 C972.759,256.184 967.772,251.113 941.007,264.662" stroke="#000000" stroke-width="2" fill="#000000" fill-opacity="0"/>
    <path d="M651.435,441.069 C649.485,441.144 643.262,439.22 643.337,442.653 C644.474,495.294 639.163,489.5 650.35,489.409" stroke="#000000" stroke-width="2" fill="#000000" fill-opacity="0"/>
    <path d="M720.532,439.067 C727.115,455.524 738.519,470.202 744.03,487.651" stroke="#000000" stroke-width="2" fill="#000000" fill-opacity="0"/>
    <path d="M812.132,439.824 C825.744,438.946 817.73,437.519 819.487,463.976 C819.702,467.211 819.706,483.737 818.17,487.689 C817.983,488.168 811.493,487.049 810.156,487.25" stroke="#000000" stroke-width="2" fill="#000000" fill-opacity="0"/>
    <path d="M893.6,457.128 C901.611,442.822 901.386,446.083 908.84,458.86" stroke="#000000" stroke-width="2" fill="#000000" fill-opacity="0"/>
    <path d="M967.239,487.671 C978.481,487.182 989.575,486.647 1000.809,487.136" stroke="#000000" stroke-width="2" fill="#000000" fill-opacity="0"/>
    <path d="M1065.631,443.245 C1067.616,446.023 1069.546,448.859 1071.289,451.795" stroke="#000000" stroke-width="2" fill="#000000" fill-opacity="0"/>
    <path d="M665.124,178.285 C672.297,178.285 679.347,177.415 686.484,177.415" stroke="#000000" stroke-width="2" fill="#000000" fill-opacity="0"/>
    <path d="M831.159,201.419 C835.306,184.832 847.247,167.63 854.573,152.063" stroke="#000000" stroke-width="2" fill="#000000" fill-opacity="0"/>
    <path d="M576.634,101.494 C576.634,124.643 600.051,125.176 599.916,101.494 C599.783,78.213 576.634,79.535 576.634,101.494 z" stroke="#000000" stroke-width="2" fill="#000000" fill-opacity="0"/>
    <path d="M610.722,85.778 C620.048,77.784 613.263,96.285 615.166,118.364" stroke="#000000" stroke-width="2" fill="#000000" fill-opacity="0"/>
    <path d="M628.668,94.165 C628.668,83.903 643.978,79.348 647.104,90.163 C650.703,102.615 629.99,105.58 628.741,113.362 C627.449,121.414 632.487,118.625 649.234,118.625" stroke="#000000" stroke-width="2" fill="#000000" fill-opacity="0"/>
    <path d="M912.339,96.186 C913.217,87.402 924.691,79.839 929.706,89.706 C933.848,97.856 920.956,97.655 922.291,107.742" stroke="#000000" stroke-width="2" fill="#000000" fill-opacity="0"/>
    <path d="M922.588,117.999 C921.513,114.65 920.369,120.801 921.548,116.351" stroke="#000000" stroke-width="2" fill="#000000" fill-opacity="0"/>
    <path d="M759.709,191.608 C758.178,187.234 763.261,188.704 761.913,190.807 C757.089,198.331 758.868,184.377 761.011,190.807" stroke="#000000" stroke-width="2" fill="#000000" fill-opacity="0"/>
    <path d="M894.169,106.838 C884.414,116.983 878.322,99.427 887.751,93.455 C901.306,84.87 892.896,105.406 894.404,108.482 C898.056,115.933 907.041,105.196 902.856,91.655 C897.04,72.837 873.572,89.771 876.638,108.169 C878.331,118.33 897.455,125.604 900.821,113.099" stroke="#000000" stroke-width="2" fill="#000000" fill-opacity="0"/>
    <path d="M751.796,241.69 C752.935,244.095 748.959,243.196 751.317,241.348" stroke="#000000" stroke-width="2" fill="#000000" fill-opacity="0"/>
    <path d="M680.973,241.238 C675.671,242.523 680.372,236.032 680.535,241.238" stroke="#000000" stroke-width="2" fill="#000000" fill-opacity="0"/>
    <path d="M679.158,263.64 C676.813,259.766 681.78,263.996 679.659,263.766 C677.753,263.559 679.7,259.713 678.845,261.137 C675.241,267.145 679.679,259.226 680.91,260.95 C683.647,264.781 672.231,264.93 680.347,260.324" stroke="#000000" stroke-width="2" fill="#000000" fill-opacity="0"/>
    <path d="M787.633,298.814 C784.656,297.39 781.616,298.102 779.952,301.639 C777.665,306.498 781.706,309.525 782.512,313.91 C784.101,322.562 772.977,319.031 781.806,325.476 C784.963,327.781 770.901,347.419 786.838,345.34" stroke="#000000" stroke-width="2" fill="#000000" fill-opacity="0"/>
    <path d="M866.712,298.856 C865.342,312.554 866.712,327.111 866.712,340.914" stroke="#000000" stroke-width="2" fill="#000000" fill-opacity="0"/>
    <path d="M946.229,298.585 C956.942,295.289 954.651,306.865 951.776,313.114 C950.18,316.584 949.331,318.677 953.273,320.774 C958.536,323.574 948.424,324.591 949.751,329.491 C950.84,333.512 955.417,335.296 954.594,340.233 C953.98,343.917 950.907,345.212 947.638,345.78" stroke="#000000" stroke-width="2" fill="#000000" fill-opacity="0"/>
    <path d="M1024.775,323.422 C1032.085,315.104 1035.873,326.496 1044.025,319.108" stroke="#000000" stroke-width="2" fill="#000000" fill-opacity="0"/>
    <path d="M813.78,520.028 C795.996,515.109 787.546,551.182 808.987,554.335 C829.129,557.297 831.849,525.026 813.78,520.028 z" stroke="#000000" stroke-width="2" fill="#000000" fill-opacity="0"/>
    <path d="M816.539,534.307 C817.285,524.976 804.005,529.728 804.832,537.832 C805.466,544.048 816.8,548.659 816.8,540.487" stroke="#000000" stroke-width="2" fill="#000000" fill-opacity="0"/>
    <path d="M895.851,529.673 C886.146,539.598 881.954,537.627 895.583,549.557" stroke="#000000" stroke-width="2" fill="#000000" fill-opacity="0"/>
    <path d="M904.788,529.986 C891.919,540.71 890.802,538.431 903.581,549.066" stroke="#000000" stroke-width="2" fill="#000000" fill-opacity="0"/>
    <path d="M971.028,514.181 C978.7,522.705 978.691,523.243 970.589,531.075" stroke="#000000" stroke-width="2" fill="#000000" fill-opacity="0"/>
    <path d="M977.536,513.231 C986.757,523.343 987.319,522.903 977.024,532.83" stroke="#000000" stroke-width="2" fill="#000000" fill-opacity="0"/>
    <path d="M252.497,620.604 C262.474,622.705 275.404,620.199 285.729,619.73" stroke="#000000" stroke-width="2" fill="#000000" fill-opacity="0"/>
    <path d="M330.768,621.261 C346.242,620.557 361.766,621.268 377.228,620.495" stroke="#000000" stroke-width="2" fill="#000000" fill-opacity="0"/>
    <path d="M435.714,602.348 C440.057,594.846 438.009,614.099 438.009,616.888" stroke="#000000" stroke-width="2" fill="#000000" fill-opacity="0"/>
    <path d="M522.059,601.366 C525.666,598.961 524.26,613.057 523.698,616.991" stroke="#000000" stroke-width="2" fill="#000000" fill-opacity="0"/>
    <path d="M601.63,602.33 C606.219,599.489 603.269,613.056 603.269,616.412" stroke="#000000" stroke-width="2" fill="#000000" fill-opacity="0"/>
    <path d="M612.432,602.813 C617.275,598.63 615.264,613.175 615.422,616.798" stroke="#000000" stroke-width="2" fill="#000000" fill-opacity="0"/>
    <path d="M686.023,603.199 C691.188,598.269 688.242,614.276 688.242,617.956" stroke="#000000" stroke-width="2" fill="#000000" fill-opacity="0"/>
    <path d="M698.176,603.873 C701.306,598.396 700.587,615.016 700.587,617.762" stroke="#000000" stroke-width="2" fill="#000000" fill-opacity="0"/>
    <path d="M779.594,617.968 C769.836,617.37 779.145,633.344 783.23,623.235 C784.862,619.196 779.312,616.537 777.264,620.671 C774.658,625.928 781.472,627.381 782.484,622.163 C783.132,618.823 778.769,618.081 778.243,621.836 C777.014,630.598 785.173,618.791 777.31,620.904 C775.996,621.257 781.799,622.319 779.781,623.328" stroke="#000000" stroke-width="2" fill="#000000" fill-opacity="0"/>
    <path d="M866.679,632.651 C864.455,634.654 862.677,632.389 863.768,631.786 C868.593,629.123 862.202,636.658 864.81,632.179 C866.185,629.819 867.041,636.853 864.311,633.305 C862.996,631.596 868.904,632.431 864.314,633.269" stroke="#000000" stroke-width="2" fill="#000000" fill-opacity="0"/>
    <path d="M850.78,633.702 C845.346,637.726 855.283,625.971 851.322,633.54 C850.163,635.754 848.193,634.157 849.702,632.265 C852.847,628.322 849.847,638.712 850.413,632.255" stroke="#000000" stroke-width="2" fill="#000000" fill-opacity="0"/>
    <path d="M879.958,634.599 C878.55,635.046 874.426,633.976 877.606,632.132 C885.052,627.816 874.119,637.296 878.301,633.143 C878.718,632.729 878.233,633.726 879.623,634.553" stroke="#000000" stroke-width="2" fill="#000000" fill-opacity="0"/>
    <path d="M149.59,531.295 C133.863,542.256 141.297,541.086 148.922,549.404" stroke="#000000" stroke-width="2" fill="#000000" fill-opacity="0"/>
    <path d="M224.123,530.634 C236.557,541.446 234.88,540.146 222.344,550.502" stroke="#000000" stroke-width="2" fill="#000000" fill-opacity="0"/>
    <path d="M469.027,554.421 C480.488,554.723 491.843,553.806 503.263,553.806" stroke="#000000" stroke-width="2" fill="#000000" fill-opacity="0"/>
    <path d="M477.228,553.806 C477.678,546.147 475.674,536.046 477.98,528.726 C481.559,517.362 491.017,517.625 490.622,529.478" stroke="#000000" stroke-width="2" fill="#000000" fill-opacity="0"/>
    <path d="M470.12,532.416 C495.47,532.416 492.467,526.503 492.467,553.054" stroke="#000000" stroke-width="2" fill="#000000" fill-opacity="0"/>
    <path d="M557.413,554.484 C567.742,553.049 578.313,553.993 588.723,553.993" stroke="#000000" stroke-width="2" fill="#000000" fill-opacity="0"/>
    <path d="M564.044,552.949 C563.2,546.203 562.614,538.335 563.123,531.523 C564.228,516.727 576.384,518.385 577.919,522.56 C578.716,524.73 576.461,545.317 576.691,552.888" stroke="#000000" stroke-width="2" fill="#000000" fill-opacity="0"/>
    <path d="M556.276,531.87 C561.33,532.316 566.462,532.154 571.538,532.154" stroke="#000000" stroke-width="2" fill="#000000" fill-opacity="0"/>
  </g>
  <defs/>
</svg>
