<?xml version="1.0" encoding="UTF-8"?>
<!DOCTYPE svg PUBLIC "-//W3C//DTD SVG 1.1//EN" "http://www.w3.org/Graphics/SVG/1.1/DTD/svg11.dtd">
<svg version="1.1" xmlns="http://www.w3.org/2000/svg" xmlns:xlink="http://www.w3.org/1999/xlink" x="0px" y="0px" width="1100" height="1100" viewBox="0, 0, 1100, 1100">
  <g id="Layer 2">
    <path d="M-29.007,746.939 L-29.007,746.939" stroke="#000000" stroke-width="2" fill="#000000" fill-opacity="0"/>
  </g>
  <g id="Layer 1">
    <g>
      <path d="M33.807,360.088 C21.002,362.648 0.773,360.088 28.992,360.088" stroke="#000000" stroke-width="2" fill="#000000" fill-opacity="0"/>
      <path d="M19.801,373.217 C35.247,371.501 20.535,372.78 21.989,372.78" stroke="#000000" stroke-width="2" fill="#000000" fill-opacity="0"/>
      <path d="M22.865,407.794 C17.355,407.794 18.7,408.187 23.302,409.108" stroke="#000000" stroke-width="2" fill="#000000" fill-opacity="0"/>
      <path d="M14.549,431.867 C18.489,432.43 22.395,432.304 26.366,432.304 C27.096,432.304 24.907,432.304 24.178,432.304 C22.865,432.304 21.552,432.304 20.239,432.304 C20.21,432.304 10.756,432.304 17.175,432.304" stroke="#000000" stroke-width="2" fill="#000000" fill-opacity="0"/>
      <path d="M17.613,384.16 C27.521,384.16 13.553,384.16 20.239,384.16" stroke="#000000" stroke-width="2" fill="#000000" fill-opacity="0"/>
    </g>
    <path d="M72.765,119.05 C65.816,72.09 100.219,69.324 93.336,118.572" stroke="#000000" stroke-width="2" fill="#000000" fill-opacity="0"/>
    <path d="M71.867,103.727 C76.81,103.727 88.879,103.555 93.822,103.555" stroke="#000000" stroke-width="2" fill="#000000" fill-opacity="0"/>
    <path d="M107.435,84.836 C107.351,85.483 107.504,116.92 107.462,117.688 C107.42,118.455 112.53,118.312 117.42,118.176 C123.981,117.994 127.625,116.536 128.848,111.341 C128.848,111.341 128.848,111.341 128.848,111.341 C130.065,106.185 125.315,100.337 115.674,101.578 C125.513,102.92 128.901,83.914 115.779,84.643 C115.779,84.643 107.519,84.189 107.435,84.836 z" stroke="#000000" stroke-width="2" fill="#000000" fill-opacity="0"/>
    <path d="M162.287,90.321 C154.752,78.504 143.049,87.645 141.4,99.079 C139.193,114.371 150.239,128.505 165.987,113.546" stroke="#000000" stroke-width="2" fill="#000000" fill-opacity="0"/>
    <path d="M178.44,119.359 C204.639,122.348 206.716,93.467 192.413,86.904 C187.61,84.139 177.539,83.774 177.274,84.522 C179.715,96.731 176.154,119.084 178.44,119.359 z" stroke="#000000" stroke-width="2" fill="#000000" fill-opacity="0"/>
    <path d="M236.14,119.769 C229.843,119.769 216.649,120.492 216.543,119.601 C215.531,111.075 215.946,85.319 215.877,83.657 C215.808,81.995 227.678,83.77 234.443,83.77" stroke="#000000" stroke-width="2" fill="#000000" fill-opacity="0"/>
    <path d="M217.07,102.213 C219.617,102.213 222.163,102.213 224.71,102.213" stroke="#000000" stroke-width="2" fill="#000000" fill-opacity="0"/>
    <path d="M253.555,119.423 C253.555,107.187 253.796,95.17 251.389,83.135 C251.083,82.298 266.571,83.042 272.671,83.652" stroke="#000000" stroke-width="2" fill="#000000" fill-opacity="0"/>
    <path d="M253.909,102.485 C256.527,102.485 260.957,102.633 263.575,102.633" stroke="#000000" stroke-width="2" fill="#000000" fill-opacity="0"/>
    <path d="M307.47,86.736 C304.146,82.568 299.317,83.383 295.317,85.89 C272.948,99.913 300.345,137.054 309.496,114.108" stroke="#000000" stroke-width="2" fill="#000000" fill-opacity="0"/>
    <path d="M297.366,104.135 C313.023,108.205 309.596,95.582 309.596,120.369" stroke="#000000" stroke-width="2" fill="#000000" fill-opacity="0"/>
    <path d="M324.403,84.288 C323.516,95.82 324.218,106.951 324.218,118.294" stroke="#000000" stroke-width="2" fill="#000000" fill-opacity="0"/>
    <path d="M346.993,83.578 C347.529,94.294 347.018,109.421 347.018,120.06" stroke="#000000" stroke-width="2" fill="#000000" fill-opacity="0"/>
    <path d="M324.812,102.369 C332.066,102.974 339.024,101.783 346.278,102.509" stroke="#000000" stroke-width="2" fill="#000000" fill-opacity="0"/>
    <path d="M371.687,84.905 C374.138,95.008 370.388,107.152 372.715,118.209" stroke="#000000" stroke-width="2" fill="#000000" fill-opacity="0"/>
    <path d="M395.766,107.583 C397.262,124.82 419.012,126.745 415.127,85.563 C414.901,83.166 403.458,85.12 397.916,84.724" stroke="#000000" stroke-width="2" fill="#000000" fill-opacity="0"/>
    <path d="M431.85,83.51 C433.181,94.823 433.094,106.974 433.094,118.36" stroke="#000000" stroke-width="2" fill="#000000" fill-opacity="0"/>
    <path d="M433.733,102.145 C440.856,97.057 447.475,90.169 454.181,84.58" stroke="#000000" stroke-width="2" fill="#000000" fill-opacity="0"/>
    <path d="M441.027,97.275 C445.447,102.799 450.507,111.898 453.523,118.361" stroke="#000000" stroke-width="2" fill="#000000" fill-opacity="0"/>
    <path d="M466.926,85.226 C468.574,90.5 468.701,95.452 469.092,100.935 C469.235,102.926 468.281,119.353 469.634,120.255 C471.364,121.408 484.594,118.397 488.413,119.352" stroke="#000000" stroke-width="2" fill="#000000" fill-opacity="0"/>
    <path d="M504.007,118.976 C503.771,114.96 500.61,86.499 503.785,84.117 C506.662,81.96 511.719,97.42 515.883,94.77 C518.22,93.283 523.439,82.237 526.536,83.215 C528.746,83.912 525.951,109.089 527.392,119.181" stroke="#000000" stroke-width="2" fill="#000000" fill-opacity="0"/>
    <path d="M72.714,191.222 C72.714,186.183 72.684,180.959 72.684,175.921 C72.684,168.843 68.464,142.848 77.347,163.378 C86.722,178.52 93.249,192.363 94.875,192.001 C95.628,191.834 94.875,163.529 94.875,156.303" stroke="#000000" stroke-width="2" fill="#000000" fill-opacity="0"/>
    <path d="M131.572,173.587 C130.098,146.93 106.292,152.765 110.273,179.084 C113.23,198.629 132.789,196.483 131.533,172.423" stroke="#000000" stroke-width="2" fill="#000000" fill-opacity="0"/>
    <path d="M144.197,156.879 C146.383,167.809 145.839,180.637 144.983,191.761" stroke="#000000" stroke-width="2" fill="#000000" fill-opacity="0"/>
    <path d="M142.311,157.036 C167.451,154.051 173.422,176.362 147.653,176.048" stroke="#000000" stroke-width="2" fill="#000000" fill-opacity="0"/>
    <path d="M202.396,165.559 C199.561,150.686 178.434,153.831 180.175,178.675 C181.636,199.51 208.38,196.949 202.396,165.559 z" stroke="#000000" stroke-width="2" fill="#000000" fill-opacity="0"/>
    <path d="M192.366,179.601 C196.372,182.748 199.546,187 202.86,190.865" stroke="#000000" stroke-width="2" fill="#000000" fill-opacity="0"/>
    <path d="M216.38,191.274 C216.38,179.273 215.359,157.948 216.284,157.605 C236.959,150.637 246.103,176.324 217.53,176.324" stroke="#000000" stroke-width="2" fill="#000000" fill-opacity="0"/>
    <path d="M228.647,175.174 C230.734,180.394 233.04,185.386 234.971,190.698" stroke="#000000" stroke-width="2" fill="#000000" fill-opacity="0"/>
    <path d="M270.41,162.019 C270.62,155.242 254.704,149.876 254.52,163.675 C254.329,178.049 273.494,164.058 271.339,184.552 C270.316,194.279 253.755,192.026 254.904,181.691" stroke="#000000" stroke-width="2" fill="#000000" fill-opacity="0"/>
    <path d="M289.018,156.392 C296.456,155.861 304.305,156.444 311.758,156.444" stroke="#000000" stroke-width="2" fill="#000000" fill-opacity="0"/>
    <path d="M300.045,157.524 C300.045,169.799 299.943,179.065 299.943,191.274" stroke="#000000" stroke-width="2" fill="#000000" fill-opacity="0"/>
    <path d="M324.283,155.625 C323.325,182.266 324.858,191.273 335.622,190.927 C346.707,190.57 350.601,178.37 348.432,156.2" stroke="#000000" stroke-width="2" fill="#000000" fill-opacity="0"/>
    <path d="M360.698,155.817 C364.806,163.24 368.788,196.311 372.937,191.017 C377.087,185.724 380.856,164.558 384.08,155.817" stroke="#000000" stroke-width="2" fill="#000000" fill-opacity="0"/>
    <path d="M407.458,156.276 C413.666,170.072 417.117,195.484 419.94,192.346 C422.764,189.209 425.15,181.148 426.563,180.744 C429.99,179.765 431.601,193.404 434.272,192.81 C436.175,192.387 442.576,161.328 444.26,155.434" stroke="#000000" stroke-width="2" fill="#000000" fill-opacity="0"/>
    <path d="M457.144,156.814 C460.352,168.044 471.809,181.238 478.566,190.698" stroke="#000000" stroke-width="2" fill="#000000" fill-opacity="0"/>
    <path d="M478.375,157.35 C471.942,170.215 464.296,178.067 457.189,190.504" stroke="#000000" stroke-width="2" fill="#000000" fill-opacity="0"/>
    <path d="M492.749,156.967 C492.749,177.488 514.359,180.303 514.359,156.51" stroke="#000000" stroke-width="2" fill="#000000" fill-opacity="0"/>
    <path d="M504.44,174.408 C504.057,177.474 504.823,186.865 504.44,190.698" stroke="#000000" stroke-width="2" fill="#000000" fill-opacity="0"/>
    <path d="M528.054,156.51 C532.684,157.098 546.972,156.213 551.655,156.174 C556.027,156.138 528.513,187.657 526.481,190.123 C524.655,192.34 537.657,189.853 551.087,190.919" stroke="#000000" stroke-width="2" fill="#000000" fill-opacity="0"/>
    <path d="M533.251,174.683 C539.211,174.683 540.382,174.621 546.341,174.621" stroke="#000000" stroke-width="2" fill="#000000" fill-opacity="0"/>
    <path d="M82.433,241.099 C67.514,237.474 64.867,259.505 74.194,262.346 C92.78,268.005 89.375,242.085 82.629,241.146" stroke="#000000" stroke-width="2" fill="#000000" fill-opacity="0"/>
    <path d="M86.216,239.182 C88.282,247.446 88.607,255.237 88.607,263.776" stroke="#000000" stroke-width="2" fill="#000000" fill-opacity="0"/>
    <path d="M106.386,221.194 C106.386,236.481 108.663,247.481 107.143,262.68" stroke="#000000" stroke-width="2" fill="#000000" fill-opacity="0"/>
    <path d="M107.577,244.416 C115.73,237.005 125.117,240.145 125.624,251.809 C126.104,262.837 107.5,267.362 107.5,256.759" stroke="#000000" stroke-width="2" fill="#000000" fill-opacity="0"/>
    <path d="M153.02,242.677 C145.114,234.821 135.806,243.505 136.055,251.092 C136.373,260.745 146.257,269.649 153.673,258.549" stroke="#000000" stroke-width="2" fill="#000000" fill-opacity="0"/>
    <path d="M184.33,242.242 C162.587,232.675 159.543,273.987 183.896,260.724" stroke="#000000" stroke-width="2" fill="#000000" fill-opacity="0"/>
    <path d="M184.783,221.69 C186.109,236.28 183.315,248.387 184.766,262.898" stroke="#000000" stroke-width="2" fill="#000000" fill-opacity="0"/>
    <path d="M200.748,252.179 C206.676,252.179 218.553,251.788 218.36,250.031 C217.286,237.574 202.698,236.792 200.963,248.742 C199.03,262.058 210.368,264.093 217.286,259.481" stroke="#000000" stroke-width="2" fill="#000000" fill-opacity="0"/>
    <path d="M236.967,262.64 C235.875,251.723 236.199,243.613 236.199,232.601 C236.199,218.501 250.537,216.901 250.537,231.902" stroke="#000000" stroke-width="2" fill="#000000" fill-opacity="0"/>
    <path d="M231.031,243.802 C235.028,243.403 239.042,243.158 243.059,243.158" stroke="#000000" stroke-width="2" fill="#000000" fill-opacity="0"/>
    <path d="M268.738,243.635 C257.56,233.667 246.985,252.404 256.405,260.463 C265.824,268.522 278.062,251.951 268.738,243.635 z" stroke="#000000" stroke-width="2" fill="#000000" fill-opacity="0"/>
    <path d="M270.642,240.473 C271.863,247.798 277.288,279.891 265.581,281.563 C256.825,282.814 255.726,276.696 255.297,271.974" stroke="#000000" stroke-width="2" fill="#000000" fill-opacity="0"/>
    <path d="M280.903,223.049 C281.6,238.558 280.903,247.445 281.433,263.127" stroke="#000000" stroke-width="2" fill="#000000" fill-opacity="0"/>
    <path d="M281.219,247.527 C296.238,239.43 295.541,247.097 295.367,263.303" stroke="#000000" stroke-width="2" fill="#000000" fill-opacity="0"/>
    <path d="M309.25,238.736 C311.991,245.591 311.543,256.268 311.543,263.729" stroke="#000000" stroke-width="2" fill="#000000" fill-opacity="0"/>
    <path d="M308.463,230.37 C307.496,225.095 312.95,229.762 308.835,229.762" stroke="#000000" stroke-width="2" fill="#000000" fill-opacity="0"/>
    <path d="M333.554,239.425 C335.597,248.619 338.538,270.155 334.247,278.348 C330.728,285.066 325.075,280.267 325.075,274.679" stroke="#000000" stroke-width="2" fill="#000000" fill-opacity="0"/>
    <path d="M333.192,229.915 C330.586,226.149 334.983,228.934 334.085,230.087 C331.601,233.279 330.646,224.391 334.085,229.915" stroke="#000000" stroke-width="2" fill="#000000" fill-opacity="0"/>
    <path d="M356.18,217.991 C358.441,233.444 356.713,248.51 356.713,263.959" stroke="#000000" stroke-width="2" fill="#000000" fill-opacity="0"/>
    <path d="M357.37,250.297 C362.315,247.549 366.091,242.073 370.914,238.857" stroke="#000000" stroke-width="2" fill="#000000" fill-opacity="0"/>
    <path d="M364.509,245.386 C366.26,251.223 368.809,258.37 371.281,263.932" stroke="#000000" stroke-width="2" fill="#000000" fill-opacity="0"/>
    <path d="M383.311,216.496 C384.941,231.158 384.458,247.107 384.458,261.896" stroke="#000000" stroke-width="2" fill="#000000" fill-opacity="0"/>
    <path d="M397.757,238.737 C398.451,246.379 397.986,254.219 397.986,261.895" stroke="#000000" stroke-width="2" fill="#000000" fill-opacity="0"/>
    <path d="M398.161,247.063 C405.289,234.228 408.311,247.162 409.301,247.162 C409.894,247.162 412.068,240.062 416.363,241.424 C421.344,243.003 420.135,257.676 420.135,262.258" stroke="#000000" stroke-width="2" fill="#000000" fill-opacity="0"/>
    <path d="M71.311,312.012 C72.992,319.575 72.402,326.848 72.402,334.588" stroke="#000000" stroke-width="2" fill="#000000" fill-opacity="0"/>
    <path d="M72.592,317.792 C88.06,307.449 90.052,323.296 89.293,335.347" stroke="#000000" stroke-width="2" fill="#000000" fill-opacity="0"/>
    <path d="M109.108,313.859 C96.728,307.533 86.445,325.158 99.926,333.07 C113.406,340.981 121.489,320.186 109.108,313.859 z" stroke="#000000" stroke-width="2" fill="#000000" fill-opacity="0"/>
    <path d="M120.3,310.828 C122.437,322.582 121.044,338.92 121.044,350.852" stroke="#000000" stroke-width="2" fill="#000000" fill-opacity="0"/>
    <path d="M121.719,315.767 C147.053,297.042 139.223,345.928 121.719,329.396" stroke="#000000" stroke-width="2" fill="#000000" fill-opacity="0"/>
    <path d="M155.581,314.104 C144.711,307.875 135.089,328.292 146.917,334.179 C158.745,340.066 166.45,320.334 155.581,314.104 z" stroke="#000000" stroke-width="2" fill="#000000" fill-opacity="0"/>
    <path d="M159.829,311.808 C162.795,326.637 158.823,337.019 160.5,352.106" stroke="#000000" stroke-width="2" fill="#000000" fill-opacity="0"/>
    <path d="M165.991,312.844 C168.438,319.573 166.152,328.085 166.864,335.206" stroke="#000000" stroke-width="2" fill="#000000" fill-opacity="0"/>
    <path d="M167.223,318.624 C168.55,313.034 179.256,311.044 179.919,319.097" stroke="#000000" stroke-width="2" fill="#000000" fill-opacity="0"/>
    <path d="M198.299,316.444 C197.92,308.865 186.456,310.76 186.493,318.649 C186.539,328.284 195.362,319.476 198.518,324.779 C203.151,332.565 191.098,339.751 186.729,331.381" stroke="#000000" stroke-width="2" fill="#000000" fill-opacity="0"/>
    <path d="M214.615,295.28 C215.17,310.451 215.493,319.845 215.493,334.682" stroke="#000000" stroke-width="2" fill="#000000" fill-opacity="0"/>
    <path d="M209.128,316.292 C212.563,315.719 218.388,315.932 221.86,315.584" stroke="#000000" stroke-width="2" fill="#000000" fill-opacity="0"/>
    <path d="M231.478,312.081 C226.999,342.26 250.528,345.355 246.144,311.576" stroke="#000000" stroke-width="2" fill="#000000" fill-opacity="0"/>
    <path d="M254.632,312.047 C258.464,316.836 263.924,343.168 266.657,331.145 C268.067,324.941 270.807,317.961 272.796,311.996" stroke="#000000" stroke-width="2" fill="#000000" fill-opacity="0"/>
    <path d="M285.388,312.039 C286.428,317.239 283.456,335.151 289.297,335.289 C293.325,335.384 293.373,326.392 296.453,326.118 C299.533,325.844 298.205,335.098 304.399,334.996 C308.816,334.923 308.037,314.009 308.446,311.939" stroke="#000000" stroke-width="2" fill="#000000" fill-opacity="0"/>
    <path d="M321.714,312.39 C328.305,319.714 329.443,327.274 335.476,335.032" stroke="#000000" stroke-width="2" fill="#000000" fill-opacity="0"/>
    <path d="M335.503,312.284 C332.427,319.973 326.324,327.34 322.535,334.918" stroke="#000000" stroke-width="2" fill="#000000" fill-opacity="0"/>
    <path d="M346.819,312.048 C347.264,316.492 343.499,341.124 355.779,335.861 C363.06,332.741 360.735,303.892 361.202,312.755 C361.747,323.128 363.482,342.928 360.73,352.837 C358.384,361.282 348.705,358.548 348.705,350.479" stroke="#000000" stroke-width="2" fill="#000000" fill-opacity="0"/>
    <path d="M372.971,312.449 C375.507,312.703 387.247,311.079 388.972,312.612 C390.618,314.076 378.269,327.594 376.772,329.427 C368.624,339.397 384.139,335.001 391.215,335.001" stroke="#000000" stroke-width="2" fill="#000000" fill-opacity="0"/>
    <path d="M375.135,324.155 C378.858,324.776 382.632,323.852 386.401,323.852" stroke="#000000" stroke-width="2" fill="#000000" fill-opacity="0"/>
    <path d="M72.085,407.671 C71.43,407.259 71.076,384.787 71.758,384.542 C74.928,383.406 82.72,383.199 82.994,389.217 C83.267,392.636 75.898,393.682 76.515,393.482 C86.848,390.119 91.359,411.934 72.085,407.671 z" stroke="#000000" stroke-width="2" fill="#000000" fill-opacity="0"/>
    <path d="M95.748,384.754 C98.012,391.546 97.678,400.224 97.678,407.366" stroke="#000000" stroke-width="2" fill="#000000" fill-opacity="0"/>
    <path d="M95.748,384.478 C115.24,382.313 117.705,407.642 97.679,407.642" stroke="#000000" stroke-width="2" fill="#000000" fill-opacity="0"/>
    <path d="M120.718,407.581 C120.718,400.64 122.277,391.446 119.848,384.968 C119.369,384.156 128.534,385.257 132.894,385.257" stroke="#000000" stroke-width="2" fill="#000000" fill-opacity="0"/>
    <path d="M121.588,395.984 C124.215,396.772 125.871,396.854 128.546,396.854" stroke="#000000" stroke-width="2" fill="#000000" fill-opacity="0"/>
    <path d="M156.753,387.227 C150.287,378.153 142.013,386.508 141.967,394.185 C141.906,404.541 152.439,412.356 157.649,401.144" stroke="#000000" stroke-width="2" fill="#000000" fill-opacity="0"/>
    <path d="M148.345,396.485 C160.378,395.519 157.409,396.132 157.409,407.757" stroke="#000000" stroke-width="2" fill="#000000" fill-opacity="0"/>
    <path d="M169.223,384.096 C169.902,392.242 169.451,398.603 169.451,406.776" stroke="#000000" stroke-width="2" fill="#000000" fill-opacity="0"/>
    <path d="M180.673,384.543 C181.386,391.424 182.34,399.879 181.659,406.693" stroke="#000000" stroke-width="2" fill="#000000" fill-opacity="0"/>
    <path d="M170.095,394.737 C174.036,394.737 177.604,394.575 181.545,394.575" stroke="#000000" stroke-width="2" fill="#000000" fill-opacity="0"/>
    <path d="M191.68,385.145 C193.293,392.131 192.755,400.103 192.755,407.287" stroke="#000000" stroke-width="2" fill="#000000" fill-opacity="0"/>
    <path d="M202.95,401.045 C206.308,417.832 217.539,402.619 213.914,384.492 C213.732,383.693 207.467,384.438 204.24,384.707" stroke="#000000" stroke-width="2" fill="#000000" fill-opacity="0"/>
    <path d="M224.795,384.307 C226.01,391.602 225.901,399.895 225.901,407.327" stroke="#000000" stroke-width="2" fill="#000000" fill-opacity="0"/>
    <path d="M225.901,395.154 C229.007,391.789 232.254,388.493 235.641,385.414" stroke="#000000" stroke-width="2" fill="#000000" fill-opacity="0"/>
    <path d="M230.107,390.948 C231.251,395.915 233.919,403.163 235.863,407.77" stroke="#000000" stroke-width="2" fill="#000000" fill-opacity="0"/>
    <path d="M247.146,384.384 C248.895,408.751 241.636,407.862 257.328,406.671" stroke="#000000" stroke-width="2" fill="#000000" fill-opacity="0"/>
    <path d="M265.133,407.244 C266.017,398.761 264.779,384.965 265.592,384.613 C277.825,381.401 279.66,396.54 266.051,395.164" stroke="#000000" stroke-width="2" fill="#000000" fill-opacity="0"/>
    <path d="M293.282,385.568 C283.97,381.073 275.286,399.915 287.012,406.059 C298.739,412.203 304.576,391.42 293.282,385.568 z" stroke="#000000" stroke-width="2" fill="#000000" fill-opacity="0"/>
    <path d="M292.878,400.923 C295.203,402.938 297.246,404.925 299.148,407.345" stroke="#000000" stroke-width="2" fill="#000000" fill-opacity="0"/>
    <path d="M314.681,385.474 C315.798,392.735 314.521,400.125 315.845,407.406" stroke="#000000" stroke-width="2" fill="#000000" fill-opacity="0"/>
    <path d="M305.365,384.891 C310.999,384.891 316.616,384.503 322.251,384.503" stroke="#000000" stroke-width="2" fill="#000000" fill-opacity="0"/>
    <path d="M330.371,384.287 C329.169,397.754 344.56,395.59 343.598,385.008" stroke="#000000" stroke-width="2" fill="#000000" fill-opacity="0"/>
    <path d="M337.345,394.148 C337.345,398.701 337.083,403.33 337.586,407.856" stroke="#000000" stroke-width="2" fill="#000000" fill-opacity="0"/>
    <path d="M660.591,84.136 C643.231,83.557 640.801,117.813 658.971,119.549 C677.141,121.285 677.951,84.715 660.591,84.136 z" stroke="#000000" stroke-width="2" fill="#000000" fill-opacity="0"/>
    <path d="M684.419,88.536 C690.578,74.678 687.499,91.616 688.115,119.485" stroke="#000000" stroke-width="2" fill="#000000" fill-opacity="0"/>
    <path d="M703.15,88.448 C709.326,78.301 722.784,85.897 722.784,94.703 C722.784,108.466 701.661,117.84 701.706,118.572 C701.764,119.498 720.303,118.283 721.917,118.283" stroke="#000000" stroke-width="2" fill="#000000" fill-opacity="0"/>
    <path d="M737.738,86.734 C739.942,80.123 754.507,81.668 755.632,87.853 C756.478,92.51 751.654,96.267 750.192,96.754 C749.475,96.993 748.707,97.041 747.956,97.126 C747.255,97.207 745.212,97.566 745.843,97.251 C753.331,93.507 759.943,103.258 758.738,111.09 C757.056,122.025 739.408,123.942 734.88,114.32" stroke="#000000" stroke-width="2" fill="#000000" fill-opacity="0"/>
    <path d="M787.07,119.166 C786.809,113.429 790.502,88.108 787.194,84.249 C785.202,81.925 766.154,103.571 767.168,106.615 C768.167,109.613 786.544,106.988 789.535,106.988" stroke="#000000" stroke-width="2" fill="#000000" fill-opacity="0"/>
    <path d="M826.006,84.204 C805.868,84.383 805.6,80.729 807.293,94.54 C807.611,97.131 827.098,90.998 828.5,105.59 C829.699,118.057 812.721,125.406 807.471,112.807" stroke="#000000" stroke-width="2" fill="#000000" fill-opacity="0"/>
    <path d="M862.343,86.156 C841.451,74.539 834.506,110.369 847.041,118.202 C856.129,123.88 867.318,115.737 863.23,105.006 C859.23,94.505 841.609,94.068 840.943,106.727" stroke="#000000" stroke-width="2" fill="#000000" fill-opacity="0"/>
    <path d="M875.932,83.916 C913.155,82.974 897.131,79.023 885.497,117.657" stroke="#000000" stroke-width="2" fill="#000000" fill-opacity="0"/>
    <path d="M885.059,100.316 C888.443,100.104 888.945,99.889 892.325,99.742" stroke="#000000" stroke-width="2" fill="#000000" fill-opacity="0"/>
    <path d="M917.057,89.182 C913.564,100.888 930.76,104.233 930.535,90.006 C930.413,82.284 919.576,80.741 917.057,89.182 z" stroke="#000000" stroke-width="2" fill="#000000" fill-opacity="0"/>
    <path d="M923.647,98.516 C910.996,96.214 908.283,116.88 921.775,118.932 C935.287,120.988 938.564,99.555 923.198,99.089" stroke="#000000" stroke-width="2" fill="#000000" fill-opacity="0"/>
    <path d="M971.962,83.607 C966.903,95.412 962.945,106.977 960,119.491" stroke="#000000" stroke-width="2" fill="#000000" fill-opacity="0"/>
    <path d="M972.332,83.607 C941.009,80.127 945.552,107.82 964.193,102.227" stroke="#000000" stroke-width="2" fill="#000000" fill-opacity="0"/>
    <path d="M683.189,167.219 C670.776,166.806 669.039,191.3 682.031,192.541 C695.022,193.782 695.601,167.633 683.189,167.219 z" stroke="#000000" stroke-width="2" fill="#000000" fill-opacity="0"/>
    <path d="M700.226,170.365 C704.63,160.456 702.428,172.566 702.869,192.494" stroke="#000000" stroke-width="2" fill="#000000" fill-opacity="0"/>
    <path d="M713.619,170.302 C718.035,163.047 727.657,168.478 727.657,174.775 C727.657,184.615 712.554,191.318 712.587,191.841 C712.628,192.503 725.884,191.634 727.038,191.634" stroke="#000000" stroke-width="2" fill="#000000" fill-opacity="0"/>
    <path d="M736.022,171.06 C738.226,164.449 752.791,165.994 753.916,172.179 C754.762,176.836 749.938,180.593 748.476,181.08 C747.759,181.319 746.991,181.367 746.24,181.452 C745.539,181.533 743.496,181.892 744.127,181.577 C751.615,177.833 758.227,187.584 757.022,195.416 C755.34,206.351 737.692,208.268 733.164,198.646" stroke="#000000" stroke-width="2" fill="#000000" fill-opacity="0"/>
    <path d="M782.791,202.76 C782.53,197.023 786.223,171.702 782.915,167.843 C780.923,165.519 761.875,187.165 762.889,190.209 C763.888,193.207 782.265,190.582 785.256,190.582" stroke="#000000" stroke-width="2" fill="#000000" fill-opacity="0"/>
    <path d="M814.038,168.53 C793.9,168.709 793.632,165.055 795.325,178.866 C795.643,181.457 815.13,175.324 816.532,189.916 C817.731,202.383 800.753,209.732 795.503,197.133" stroke="#000000" stroke-width="2" fill="#000000" fill-opacity="0"/>
    <path d="M844.15,157.668 C823.258,146.051 816.313,181.881 828.848,189.714 C837.936,195.392 849.125,187.249 845.037,176.518 C841.037,166.017 823.416,165.58 822.75,178.239" stroke="#000000" stroke-width="2" fill="#000000" fill-opacity="0"/>
    <path d="M851.149,168.974 C888.372,168.032 872.348,164.081 860.714,202.715" stroke="#000000" stroke-width="2" fill="#000000" fill-opacity="0"/>
    <path d="M860.276,185.374 C863.66,185.162 864.162,184.947 867.542,184.8" stroke="#000000" stroke-width="2" fill="#000000" fill-opacity="0"/>
    <path d="M887.148,161.059 C883.655,172.765 900.851,176.11 900.626,161.883 C900.504,154.161 889.667,152.618 887.148,161.059 z" stroke="#000000" stroke-width="2" fill="#000000" fill-opacity="0"/>
    <path d="M893.737,170.393 C881.086,168.091 878.373,188.757 891.865,190.809 C905.377,192.865 908.654,171.432 893.288,170.966" stroke="#000000" stroke-width="2" fill="#000000" fill-opacity="0"/>
    <path d="M932.899,168.666 C927.84,180.471 923.882,192.036 920.937,204.55" stroke="#000000" stroke-width="2" fill="#000000" fill-opacity="0"/>
    <path d="M933.269,168.665 C901.946,165.185 906.489,192.878 925.13,187.286" stroke="#000000" stroke-width="2" fill="#000000" fill-opacity="0"/>
    <path d="M675.15,239.904 C662.737,239.491 661,263.985 673.992,265.226 C686.983,266.467 687.562,240.318 675.15,239.904 z" stroke="#000000" stroke-width="2" fill="#000000" fill-opacity="0"/>
    <path d="M692.187,243.05 C696.591,233.142 694.389,245.252 694.83,265.18" stroke="#000000" stroke-width="2" fill="#000000" fill-opacity="0"/>
    <path d="M705.581,242.987 C709.997,235.732 719.619,241.163 719.619,247.46 C719.619,257.3 704.516,264.003 704.549,264.526 C704.59,265.188 717.846,264.319 719,264.319" stroke="#000000" stroke-width="2" fill="#000000" fill-opacity="0"/>
    <path d="M727.001,242.273 C728.448,237.931 738.012,238.946 738.751,243.007 C739.306,246.065 736.138,248.532 735.179,248.852 C734.708,249.009 734.203,249.04 733.71,249.097 C733.25,249.149 731.909,249.385 732.323,249.178 C737.24,246.72 741.582,253.123 740.79,258.266 C739.686,265.446 728.097,266.705 725.124,260.387" stroke="#000000" stroke-width="2" fill="#000000" fill-opacity="0"/>
    <path d="M758.11,264.688 C757.927,260.659 760.521,242.877 758.198,240.167 C756.799,238.535 743.422,253.736 744.134,255.874 C744.836,257.979 757.741,256.136 759.842,256.136" stroke="#000000" stroke-width="2" fill="#000000" fill-opacity="0"/>
    <path d="M778.229,240.612 C765.006,240.729 764.83,238.33 765.942,247.399 C766.151,249.1 778.946,245.073 779.867,254.654 C780.655,262.84 769.506,267.666 766.059,259.393" stroke="#000000" stroke-width="2" fill="#000000" fill-opacity="0"/>
    <path d="M803.141,241.317 C789.293,233.617 784.689,257.366 792.998,262.558 C799.021,266.322 806.438,260.925 803.729,253.812 C801.077,246.851 789.398,246.561 788.956,254.952" stroke="#000000" stroke-width="2" fill="#000000" fill-opacity="0"/>
    <path d="M817.405,241.02 C842.398,240.388 831.639,237.735 823.828,263.675" stroke="#000000" stroke-width="2" fill="#000000" fill-opacity="0"/>
    <path d="M823.533,252.031 C825.805,251.889 826.142,251.745 828.411,251.647" stroke="#000000" stroke-width="2" fill="#000000" fill-opacity="0"/>
    <path d="M852.014,243.15 C849.674,250.994 861.197,253.235 861.046,243.702 C860.964,238.527 853.702,237.494 852.014,243.15 z" stroke="#000000" stroke-width="2" fill="#000000" fill-opacity="0"/>
    <path d="M856.431,249.404 C847.953,247.861 846.136,261.709 855.176,263.084 C864.23,264.462 866.426,250.1 856.13,249.788" stroke="#000000" stroke-width="2" fill="#000000" fill-opacity="0"/>
    <path d="M891.169,240.815 C887.91,248.42 885.36,255.871 883.463,263.933" stroke="#000000" stroke-width="2" fill="#000000" fill-opacity="0"/>
    <path d="M891.407,240.815 C871.228,238.573 874.154,256.414 886.164,252.811" stroke="#000000" stroke-width="2" fill="#000000" fill-opacity="0"/>
    <path d="M650.169,336.944 C650.169,324.709 650.41,312.691 648.003,300.657 C647.697,299.82 674.924,299.123 663.487,303.208" stroke="#000000" stroke-width="2" fill="#000000" fill-opacity="0"/>
    <path d="M650.523,320.007 C653.141,320.007 657.571,320.155 660.189,320.155" stroke="#000000" stroke-width="2" fill="#000000" fill-opacity="0"/>
    <path d="M666.269,312.156 C669.01,319.01 668.561,329.687 668.561,337.148" stroke="#000000" stroke-width="2" fill="#000000" fill-opacity="0"/>
    <path d="M734.201,300.444 C741.64,299.913 767.632,298.393 752.615,304.049" stroke="#000000" stroke-width="2" fill="#000000" fill-opacity="0"/>
    <path d="M745.228,301.577 C745.228,313.852 745.126,323.118 745.126,335.327" stroke="#000000" stroke-width="2" fill="#000000" fill-opacity="0"/>
    <path d="M650.131,391.713 C665.15,383.616 664.453,391.283 664.279,407.489" stroke="#000000" stroke-width="2" fill="#000000" fill-opacity="0"/>
    <path d="M754.476,311.234 C757.217,318.088 756.768,328.765 756.768,336.227" stroke="#000000" stroke-width="2" fill="#000000" fill-opacity="0"/>
    <path d="M636.273,408.473 C635.181,397.556 635.505,389.445 635.505,378.434 C635.505,364.334 652.635,362.82 649.843,377.736 C649.571,379.191 648.999,407.501 648.999,407.501" stroke="#000000" stroke-width="2" fill="#000000" fill-opacity="0"/>
    <path d="M630.337,389.635 C634.334,389.236 638.348,388.991 642.365,388.991" stroke="#000000" stroke-width="2" fill="#000000" fill-opacity="0"/>
    <path d="M684.109,407.901 C683.017,396.984 683.341,388.873 683.341,377.862 C683.341,363.762 700.471,362.248 697.679,377.163 C697.407,378.619 696.835,406.929 696.835,406.929" stroke="#000000" stroke-width="2" fill="#000000" fill-opacity="0"/>
    <path d="M678.173,389.063 C682.17,388.664 686.184,388.419 690.201,388.419" stroke="#000000" stroke-width="2" fill="#000000" fill-opacity="0"/>
    <path d="M697.658,394.307 C702.603,391.559 706.379,386.083 711.202,382.867" stroke="#000000" stroke-width="2" fill="#000000" fill-opacity="0"/>
    <path d="M704.797,389.396 C706.548,395.233 709.097,402.38 711.569,407.942" stroke="#000000" stroke-width="2" fill="#000000" fill-opacity="0"/>
    <path d="M732.631,408.054 C731.54,397.137 731.864,389.026 731.864,378.015 C731.864,363.915 751.053,359.852 746.706,377.239 C745.89,380.503 743.695,415.987 746.889,405.678" stroke="#000000" stroke-width="2" fill="#000000" fill-opacity="0"/>
    <path d="M768.646,408.57 C767.554,397.653 767.878,389.542 767.878,378.531 C767.878,364.431 785.008,362.917 782.216,377.832 C781.944,379.288 781.372,407.598 781.372,407.598" stroke="#000000" stroke-width="2" fill="#000000" fill-opacity="0"/>
    <path d="M726.618,390.552 C730.615,390.153 734.629,389.908 738.646,389.908" stroke="#000000" stroke-width="2" fill="#000000" fill-opacity="0"/>
    <path d="M762.737,389.693 C766.734,389.294 770.748,389.049 774.765,389.049" stroke="#000000" stroke-width="2" fill="#000000" fill-opacity="0"/>
    <path d="M781.719,389.798 C789.872,382.387 799.259,385.527 799.766,397.191 C800.246,408.219 781.642,412.744 781.642,402.141" stroke="#000000" stroke-width="2" fill="#000000" fill-opacity="0"/>
    <path d="M815.874,407.817 C814.782,396.901 815.106,388.79 815.106,377.779 C815.106,363.678 830.76,362.813 829.444,377.08 C829.313,378.5 826.501,376.188 826.501,376.188" stroke="#000000" stroke-width="2" fill="#000000" fill-opacity="0"/>
    <path d="M828.372,383.133 C831.113,389.987 830.664,400.664 830.664,408.125" stroke="#000000" stroke-width="2" fill="#000000" fill-opacity="0"/>
    <path d="M852.614,408.191 C851.522,397.275 851.846,389.164 851.846,378.153 C851.846,364.052 867.5,363.187 866.184,377.454 C866.053,378.874 863.241,376.562 863.241,376.562" stroke="#000000" stroke-width="2" fill="#000000" fill-opacity="0"/>
    <path d="M809.905,388.462 C813.902,388.063 817.916,387.818 821.933,387.818" stroke="#000000" stroke-width="2" fill="#000000" fill-opacity="0"/>
    <path d="M846.109,388.836 C850.106,388.437 854.12,388.192 858.137,388.192" stroke="#000000" stroke-width="2" fill="#000000" fill-opacity="0"/>
    <path d="M864.728,383.816 C866.771,393.01 869.712,414.546 865.421,422.739 C861.902,429.457 856.249,424.658 856.249,419.07" stroke="#000000" stroke-width="2" fill="#000000" fill-opacity="0"/>
    <path d="M696.172,336.174 C696.172,323.939 696.412,311.921 694.005,299.887 C693.699,299.05 720.927,298.353 709.489,302.438" stroke="#000000" stroke-width="2" fill="#000000" fill-opacity="0"/>
    <path d="M696.525,319.237 C699.142,319.237 703.573,319.385 706.191,319.385" stroke="#000000" stroke-width="2" fill="#000000" fill-opacity="0"/>
    <path d="M711.333,311.964 C713.376,321.158 716.317,342.694 712.026,350.887 C708.507,357.605 702.854,352.806 702.854,347.218" stroke="#000000" stroke-width="2" fill="#000000" fill-opacity="0"/>
    <path d="M885.387,408.128 C884.295,397.211 884.619,389.1 884.619,378.089 C884.619,363.989 902.728,361.786 898.957,377.391 C898.12,380.855 898.113,407.156 898.113,407.156" stroke="#000000" stroke-width="2" fill="#000000" fill-opacity="0"/>
    <path d="M879.451,389.29 C885.589,390.232 897.724,388.46 905.777,389.188" stroke="#000000" stroke-width="2" fill="#000000" fill-opacity="0"/>
    <path d="M649.79,463.76 C664.809,455.663 664.112,463.33 663.938,479.536" stroke="#000000" stroke-width="2" fill="#000000" fill-opacity="0"/>
    <path d="M635.932,480.52 C634.84,469.603 635.164,461.492 635.164,450.481 C635.164,436.381 652.294,434.867 649.502,449.783 C649.23,451.238 648.658,479.548 648.658,479.548" stroke="#000000" stroke-width="2" fill="#000000" fill-opacity="0"/>
    <path d="M617.784,462.155 C621.78,461.755 638.007,461.037 642.024,461.037" stroke="#000000" stroke-width="2" fill="#000000" fill-opacity="0"/>
    <path d="M687.42,479.542 C686.328,468.625 686.652,460.514 686.652,449.503 C686.652,435.403 703.782,433.889 700.99,448.805 C700.718,450.26 700.146,478.57 700.146,478.57" stroke="#000000" stroke-width="2" fill="#000000" fill-opacity="0"/>
    <path d="M700.969,465.948 C705.914,463.2 709.69,457.724 714.513,454.508" stroke="#000000" stroke-width="2" fill="#000000" fill-opacity="0"/>
    <path d="M708.108,461.037 C709.859,466.874 712.408,474.021 714.88,479.583" stroke="#000000" stroke-width="2" fill="#000000" fill-opacity="0"/>
    <path d="M738.783,480.507 C737.692,469.59 738.016,461.479 738.016,450.468 C738.016,436.368 757.205,432.305 752.858,449.692 C752.042,452.956 749.847,488.44 753.041,478.131" stroke="#000000" stroke-width="2" fill="#000000" fill-opacity="0"/>
    <path d="M778.857,479.805 C777.765,468.888 778.089,460.777 778.089,449.766 C778.089,435.666 795.219,434.152 792.427,449.068 C792.155,450.523 791.583,478.833 791.583,478.833" stroke="#000000" stroke-width="2" fill="#000000" fill-opacity="0"/>
    <path d="M791.93,461.033 C800.083,453.622 809.47,456.762 809.977,468.426 C810.457,479.454 791.853,483.979 791.853,473.376" stroke="#000000" stroke-width="2" fill="#000000" fill-opacity="0"/>
    <path d="M837.854,479.052 C836.762,468.136 837.086,460.025 837.086,449.014 C837.086,434.913 852.74,434.048 851.424,448.315 C851.293,449.735 848.481,447.423 848.481,447.423" stroke="#000000" stroke-width="2" fill="#000000" fill-opacity="0"/>
    <path d="M850.352,454.368 C853.093,461.222 852.644,471.899 852.644,479.361" stroke="#000000" stroke-width="2" fill="#000000" fill-opacity="0"/>
    <path d="M883.929,479.832 C882.837,468.916 883.161,460.805 883.161,449.794 C883.161,435.693 898.815,434.828 897.499,449.095 C897.368,450.515 894.556,448.203 894.556,448.203" stroke="#000000" stroke-width="2" fill="#000000" fill-opacity="0"/>
    <path d="M896.043,455.457 C898.086,464.651 901.027,486.187 896.736,494.38 C893.217,501.098 887.564,496.299 887.564,490.711" stroke="#000000" stroke-width="2" fill="#000000" fill-opacity="0"/>
    <path d="M923.601,479.363 C922.509,468.446 922.833,460.336 922.833,449.324 C922.833,435.224 940.942,433.021 937.171,448.626 C936.334,452.09 936.327,478.391 936.327,478.391" stroke="#000000" stroke-width="2" fill="#000000" fill-opacity="0"/>
    <path d="M905.649,460.082 C911.787,461.024 935.939,459.695 943.991,460.423" stroke="#000000" stroke-width="2" fill="#000000" fill-opacity="0"/>
    <path d="M625.172,480.618 C624.08,469.702 624.404,461.591 624.404,450.58 C624.404,439.06 633.614,435.555 637.117,442.96" stroke="#000000" stroke-width="2" fill="#000000" fill-opacity="0"/>
    <path d="M669.687,460.443 C673.683,460.043 689.91,459.325 693.927,459.325" stroke="#000000" stroke-width="2" fill="#000000" fill-opacity="0"/>
    <path d="M677.075,478.906 C675.983,467.99 676.307,459.879 676.307,448.868 C676.307,437.348 685.517,433.843 689.02,441.248" stroke="#000000" stroke-width="2" fill="#000000" fill-opacity="0"/>
    <path d="M720.504,462.036 C724.5,461.636 740.727,460.918 744.744,460.918" stroke="#000000" stroke-width="2" fill="#000000" fill-opacity="0"/>
    <path d="M727.892,480.499 C726.8,469.583 727.124,461.472 727.124,450.461 C727.124,438.941 736.334,435.436 739.837,442.841" stroke="#000000" stroke-width="2" fill="#000000" fill-opacity="0"/>
    <path d="M760.43,461.325 C764.426,460.925 780.653,460.207 784.67,460.207" stroke="#000000" stroke-width="2" fill="#000000" fill-opacity="0"/>
    <path d="M767.818,479.787 C766.726,468.871 767.05,460.76 767.05,449.749 C767.05,438.229 776.26,434.724 779.763,442.129" stroke="#000000" stroke-width="2" fill="#000000" fill-opacity="0"/>
    <path d="M819.625,460.593 C823.621,460.193 839.848,459.475 843.865,459.475" stroke="#000000" stroke-width="2" fill="#000000" fill-opacity="0"/>
    <path d="M827.012,479.055 C825.92,468.139 826.244,460.028 826.244,449.017 C826.244,437.497 835.454,433.992 838.957,441.397" stroke="#000000" stroke-width="2" fill="#000000" fill-opacity="0"/>
    <path d="M865.339,461.664 C869.335,461.264 885.562,460.546 889.579,460.546" stroke="#000000" stroke-width="2" fill="#000000" fill-opacity="0"/>
    <path d="M872.727,480.126 C871.635,469.21 871.959,461.099 871.959,450.088 C871.959,438.568 881.169,435.063 884.672,442.468" stroke="#000000" stroke-width="2" fill="#000000" fill-opacity="0"/>
    <path d="M911.948,480.792 C910.856,469.876 911.18,461.765 911.18,450.754 C911.18,439.234 920.39,435.729 923.893,443.134" stroke="#000000" stroke-width="2" fill="#000000" fill-opacity="0"/>
    <path d="M791.583,296.522 C792.138,311.693 792.461,321.087 792.461,335.924" stroke="#000000" stroke-width="2" fill="#000000" fill-opacity="0"/>
    <path d="M786.582,317.721 C790.016,317.148 804.01,316.627 807.482,316.279" stroke="#000000" stroke-width="2" fill="#000000" fill-opacity="0"/>
    <path d="M800.862,297.153 C801.417,312.324 801.74,321.718 801.74,336.555" stroke="#000000" stroke-width="2" fill="#000000" fill-opacity="0"/>
    <path d="M83.891,479.453 L83.85,478.851" stroke="#000000" stroke-width="2" fill="#000000" fill-opacity="0"/>
    <path d="M95.012,478.305 C95.319,481.237 95.112,484.491 93.649,486.087" stroke="#000000" stroke-width="2" fill="#000000" fill-opacity="0"/>
    <path d="M105.38,471.737 L105.34,471.135" stroke="#000000" stroke-width="2" fill="#000000" fill-opacity="0"/>
    <path d="M105.458,477.71 C105.764,480.642 105.558,483.896 104.094,485.492" stroke="#000000" stroke-width="2" fill="#000000" fill-opacity="0"/>
    <path d="M141.359,455.955 C141.053,458.887 141.259,462.141 142.723,463.737" stroke="#000000" stroke-width="2" fill="#000000" fill-opacity="0"/>
    <path d="M136.652,456.06 C136.346,458.992 136.552,462.246 138.016,463.842" stroke="#000000" stroke-width="2" fill="#000000" fill-opacity="0"/>
    <path d="M157.3,463.825 C157.606,460.893 157.4,457.639 155.936,456.043" stroke="#000000" stroke-width="2" fill="#000000" fill-opacity="0"/>
    <path d="M162.007,463.72 C162.313,460.788 162.107,457.534 160.643,455.938" stroke="#000000" stroke-width="2" fill="#000000" fill-opacity="0"/>
    <path d="M142.099,469.026 C141.793,471.958 141.999,475.212 143.463,476.808" stroke="#000000" stroke-width="2" fill="#000000" fill-opacity="0"/>
    <path d="M158.04,476.896 C158.346,473.964 158.14,470.71 156.676,469.114" stroke="#000000" stroke-width="2" fill="#000000" fill-opacity="0"/>
    <path d="M151.223,489.049 C151.529,486.117 151.323,482.863 149.859,481.267" stroke="#000000" stroke-width="2" fill="#000000" fill-opacity="0"/>
    <path d="M191.969,459.687 C191.468,465.624 183.734,461.443 188.672,457.906 C192.243,455.348 192.927,460.111 190.297,460.89 C187.668,461.669 188.874,458.138 188.183,460.209 C187.493,462.28 188.998,458.038 190.688,459.203 C192.378,460.368 192.185,457.133 191.969,459.687 z" stroke="#000000" stroke-width="2" fill="#000000" fill-opacity="0"/>
    <path d="M204.167,478.238 C210.942,467.768 219.256,454.218 227.263,444.056" stroke="#000000" stroke-width="2" fill="#000000" fill-opacity="0"/>
    <path d="M241.737,444.672 C248.951,456.695 255.902,467.152 263.909,479.162" stroke="#000000" stroke-width="2" fill="#000000" fill-opacity="0"/>
    <path d="M276.842,478.546 C284.447,467.138 289.964,453.691 299.014,443.132" stroke="#000000" stroke-width="2" fill="#000000" fill-opacity="0"/>
    <path d="M296.091,462.969 C290.965,460.777 286.183,469.964 292.64,472.96 C299.096,475.956 302.31,465.822 296.091,462.969 z" stroke="#000000" stroke-width="2" fill="#000000" fill-opacity="0"/>
    <path d="M283.955,456.188 C288.18,452.55 282.038,444.211 276.505,448.689 C270.972,453.166 278.655,460.514 283.955,456.188 z" stroke="#000000" stroke-width="2" fill="#000000" fill-opacity="0"/>
    <path d="M323.342,440.053 C324.843,453.567 322.036,467.559 323.958,481.009" stroke="#000000" stroke-width="2" fill="#000000" fill-opacity="0"/>
    <path d="M341.938,435.984 C332.833,434.846 335.558,439.167 335.641,459.684 C335.73,481.818 334.327,483.07 342.145,483.576" stroke="#000000" stroke-width="2" fill="#000000" fill-opacity="0"/>
    <path d="M353.843,435.589 C362.741,434.554 359.434,436.82 360.251,460.297 C361.079,484.093 362.424,484.403 353.94,483.886" stroke="#000000" stroke-width="2" fill="#000000" fill-opacity="0"/>
    <path d="M383.145,436.343 C373.672,450.983 373.362,472.104 383.512,486.483" stroke="#000000" stroke-width="2" fill="#000000" fill-opacity="0"/>
    <path d="M395.619,436.22 C405.329,451.906 405.427,471.986 396.108,487.828" stroke="#000000" stroke-width="2" fill="#000000" fill-opacity="0"/>
    <path d="M418.896,437.632 C406.694,437.389 412.08,439.982 412.505,455.495 C412.554,457.276 408.448,459.652 408.457,461.765 C408.466,463.979 412.654,465.546 412.592,467.365 C411.952,486.272 406.126,485.419 419.103,485.224" stroke="#000000" stroke-width="2" fill="#000000" fill-opacity="0"/>
    <path d="M430.801,437.237 C430.801,437.237 430.801,437.237 430.801,437.237 C444.209,437.388 436.91,438.066 437.074,455.812 C437.091,457.675 441.917,459.181 441.995,461.412 C442.065,463.434 437.353,465.82 437.425,467.517 C438.194,485.787 444.351,485.987 430.898,485.534" stroke="#000000" stroke-width="2" fill="#000000" fill-opacity="0"/>
    <path d="M118.403,476.104 L118.363,475.502" stroke="#000000" stroke-width="2" fill="#000000" fill-opacity="0"/>
    <path d="M118.648,469.755 L118.608,469.153" stroke="#000000" stroke-width="2" fill="#000000" fill-opacity="0"/>
    <path d="M379.211,390.593 C374.104,388.594 367.967,395.212 373.43,398.993 C379.201,402.989 385.293,394.605 378.85,390.683" stroke="#000000" stroke-width="2" fill="#000000" fill-opacity="0"/>
    <path d="M382.192,389.508 C382.192,389.508 382.192,389.508 382.192,389.508 C381.788,400.017 381.176,402.457 383.005,402.426 C393.574,402.245 394.919,378.38 377.404,381.379 C355.886,385.063 366.853,415.524 386.799,406.852" stroke="#000000" stroke-width="2" fill="#000000" fill-opacity="0"/>
    <path d="M416.315,383.819 C400.797,377.5 392.415,403.94 406.188,408.788 C423.959,415.043 428.65,391.169 415.746,383.718" stroke="#000000" stroke-width="2" fill="#000000" fill-opacity="0"/>
    <path d="M414.721,390.188 C403.607,389.694 402.302,404.343 415.973,401.914" stroke="#000000" stroke-width="2" fill="#000000" fill-opacity="0"/>
    <path d="M98.645,525.937 C98.777,512.115 117.983,511.683 118.115,524.929 C118.245,537.899 108.446,524.785 108.314,544.366" stroke="#000000" stroke-width="2" fill="#000000" fill-opacity="0"/>
    <path d="M108.443,549.371 C108.339,550.097 108.235,550.823 108.131,551.549" stroke="#000000" stroke-width="2" fill="#000000" fill-opacity="0"/>
    <path d="M132.092,516.52 C132.092,525.122 130.877,533.777 131.625,542.37" stroke="#000000" stroke-width="2" fill="#000000" fill-opacity="0"/>
    <path d="M131.78,548.437 C131.884,549.163 131.988,549.889 132.092,550.615" stroke="#000000" stroke-width="2" fill="#000000" fill-opacity="0"/>
    <path d="M155.429,516.854 C151.505,515.137 146.527,514.802 146.094,520.432 C145.717,525.336 154.098,525.733 153.562,525.878 C135.67,530.701 141.945,547.205 149.361,550.305 C159.786,554.661 169.587,542.37 159.63,533.968" stroke="#000000" stroke-width="2" fill="#000000" fill-opacity="0"/>
    <path d="M155.274,543.303 C148.66,534.885 172.651,531.22 166.165,517.165" stroke="#000000" stroke-width="2" fill="#000000" fill-opacity="0"/>
    <path d="M450.075,384.532 C447.428,383.391 444.07,383.168 443.778,386.91 C443.523,390.168 449.177,390.432 448.816,390.528 C436.745,393.733 440.979,404.7 445.982,406.76 C453.014,409.655 459.626,401.487 452.909,395.904" stroke="#000000" stroke-width="2" fill="#000000" fill-opacity="0"/>
    <path d="M449.97,402.108 C445.508,396.514 461.693,394.078 457.318,384.738" stroke="#000000" stroke-width="2" fill="#000000" fill-opacity="0"/>
    <path d="M180.706,533.179 C187.595,533.179 194.635,532.75 201.496,533.374" stroke="#000000" stroke-width="2" fill="#000000" fill-opacity="0"/>
    <path d="M215.85,533.935 C228.974,535.128 238.246,533.314 251.446,533.314" stroke="#000000" stroke-width="2" fill="#000000" fill-opacity="0"/>
    <path d="M509.751,450.923 C527.799,459.603 527.937,461.531 510.716,470.211" stroke="#000000" stroke-width="2" fill="#000000" fill-opacity="0"/>
    <path d="M501.485,453.541 C518.844,460.43 518.844,461.945 500.658,467.043" stroke="#000000" stroke-width="2" fill="#000000" fill-opacity="0"/>
    <path d="M479.161,451.142 C461.113,459.822 460.975,461.75 478.196,470.43" stroke="#000000" stroke-width="2" fill="#000000" fill-opacity="0"/>
    <path d="M487.427,453.759 C470.068,460.648 470.068,462.163 488.254,467.261" stroke="#000000" stroke-width="2" fill="#000000" fill-opacity="0"/>
    <path d="M489.85,475.608 C471.802,484.288 471.664,486.216 488.885,494.896" stroke="#000000" stroke-width="2" fill="#000000" fill-opacity="0"/>
    <path d="M501.428,475.665 C519.476,484.345 519.614,486.273 502.393,494.953" stroke="#000000" stroke-width="2" fill="#000000" fill-opacity="0"/>
    <path d="M275.681,516.032 C283.684,506.089 291.041,522.743 298.479,513.688" stroke="#000000" stroke-width="2" fill="#000000" fill-opacity="0"/>
    <path d="M311.866,522.288 C312.124,525.763 312.312,529.233 312.486,532.712" stroke="#000000" stroke-width="2" fill="#000000" fill-opacity="0"/>
    <path d="M306.5,527.345 C310.628,527.345 314.756,527.345 318.884,527.345" stroke="#000000" stroke-width="2" fill="#000000" fill-opacity="0"/>
    <path d="M331.68,522.598 C335.028,522.431 338.345,522.361 341.69,522.082" stroke="#000000" stroke-width="2" fill="#000000" fill-opacity="0"/>
    <path d="M331.783,528.171 C335.452,527.941 338.03,528.33 341.691,528.171" stroke="#000000" stroke-width="2" fill="#000000" fill-opacity="0"/>
    <path d="M371.834,515.615 C375.64,515.468 379.448,515.602 383.252,515.421" stroke="#000000" stroke-width="2" fill="#000000" fill-opacity="0"/>
    <path d="M374.722,510.208 C376.074,514.455 378.099,517.482 380.548,521.156" stroke="#000000" stroke-width="2" fill="#000000" fill-opacity="0"/>
    <path d="M374.119,521.357 C376.155,518.1 378.643,513.484 380.949,510.409" stroke="#000000" stroke-width="2" fill="#000000" fill-opacity="0"/>
  </g>
  <defs/>
</svg>
